<?xml version="1.0" encoding="UTF-8" standalone="no"?>
<!-- Created with Inkscape (http://www.inkscape.org/) -->

<svg
   width="820"
   height="462"
   viewBox="0 0 820 462"
   version="1.1"
   id="svg5"
   xml:space="preserve"
   inkscape:version="1.2.2 (b0a8486541, 2022-12-01)"
   sodipodi:docname="anki_server.svg"
   inkscape:export-filename="anki_server.png"
   inkscape:export-xdpi="300"
   inkscape:export-ydpi="300"
   xmlns:inkscape="http://www.inkscape.org/namespaces/inkscape"
   xmlns:sodipodi="http://sodipodi.sourceforge.net/DTD/sodipodi-0.dtd"
   xmlns:xlink="http://www.w3.org/1999/xlink"
   xmlns="http://www.w3.org/2000/svg"
   xmlns:svg="http://www.w3.org/2000/svg"><sodipodi:namedview
     id="namedview7"
     pagecolor="#ffffff"
     bordercolor="#000000"
     borderopacity="0.25"
     inkscape:showpageshadow="2"
     inkscape:pageopacity="0.0"
     inkscape:pagecheckerboard="0"
     inkscape:deskcolor="#d1d1d1"
     inkscape:document-units="px"
     showgrid="false"
     inkscape:zoom="1.4448242"
     inkscape:cx="427.73369"
     inkscape:cy="314.9172"
     inkscape:window-width="2560"
     inkscape:window-height="1382"
     inkscape:window-x="0"
     inkscape:window-y="0"
     inkscape:window-maximized="1"
     inkscape:current-layer="layer1" /><defs
     id="defs2"><clipPath
       clipPathUnits="userSpaceOnUse"
       id="clipPath3352"><rect
         style="opacity:1;fill:none;fill-opacity:1;stroke:#000000;stroke-width:11.60000038;stroke-miterlimit:4;stroke-dasharray:none;stroke-dashoffset:0;stroke-opacity:1"
         id="rect3354"
         width="454.94531"
         height="447.15515"
         x="35.834736"
         y="36.568138"
         ry="60.740299" /></clipPath><linearGradient
       id="d"
       x1="98"
       x2="98"
       y1="98"
       y2="195.5"
       gradientUnits="userSpaceOnUse"><stop
         stop-color="#fff"
         offset="0"
         id="stop362" /><stop
         stop-color="#E9E5E5"
         offset="1"
         id="stop364" /></linearGradient><linearGradient
       id="c"
       x1="104.61061"
       x2="104.61061"
       y2="37.039019"
       gradientTransform="scale(0.29208988,3.4236038)"
       y1="15.961631"
       gradientUnits="userSpaceOnUse"><stop
         stop-color="#0339F1"
         offset="0"
         id="stop367" /><stop
         stop-color="#01ADE5"
         offset="1"
         id="stop369" /></linearGradient><linearGradient
       id="b"
       x1="54.804602"
       x2="101.43272"
       y1="58.307517"
       y2="109.79727"
       gradientTransform="scale(0.93053152,1.0746546)"
       gradientUnits="userSpaceOnUse"><stop
         stop-color="#0756EE"
         offset="0"
         id="stop372" /><stop
         stop-color="#00A3F5"
         offset=".37448"
         id="stop374" /><stop
         stop-color="#18B5B6"
         offset=".71708"
         id="stop376" /><stop
         stop-color="#80DF43"
         offset="1"
         id="stop378" /></linearGradient><linearGradient
       id="a"
       x1="149.64282"
       x2="201.0253"
       y1="47.501322"
       y2="108.70309"
       gradientTransform="scale(0.82995643,1.2048825)"
       gradientUnits="userSpaceOnUse"><stop
         stop-color="#20BBA6"
         offset="0"
         id="stop381" /><stop
         stop-color="#9BEC23"
         offset=".4988"
         id="stop383" /><stop
         stop-color="#D9EF35"
         offset="1"
         id="stop385" /></linearGradient><linearGradient
       id="gradient_belly_shadow"><stop
         offset="0"
         stop-color="#000000"
         id="stop426" /><stop
         offset="1"
         stop-color="#000000"
         stop-opacity="0.25"
         id="stop428" /></linearGradient><linearGradient
       id="gradient_wing_tip_right_shadow"><stop
         offset="0"
         stop-color="#110800"
         id="stop431" /><stop
         offset="0.59"
         stop-color="#a65a00"
         stop-opacity="0.8"
         id="stop433" /><stop
         offset="1"
         stop-color="#ff921e"
         stop-opacity="0"
         id="stop435" /></linearGradient><linearGradient
       id="gradient_wing_tip_right_glare_1"><stop
         offset="0"
         stop-color="#7c7c7c"
         id="stop438" /><stop
         offset="1"
         stop-color="#7c7c7c"
         stop-opacity="0.33"
         id="stop440" /></linearGradient><linearGradient
       id="gradient_foot_left_layer_1"><stop
         offset="0"
         stop-color="#b98309"
         id="stop448" /><stop
         offset="1"
         stop-color="#382605"
         id="stop450" /></linearGradient><linearGradient
       id="gradient_foot_left_glare"><stop
         offset="0"
         stop-color="#ebc40c"
         id="stop453" /><stop
         offset="1"
         stop-color="#ebc40c"
         stop-opacity="0"
         id="stop455" /></linearGradient><linearGradient
       id="gradient_foot_right_shadow"><stop
         offset="0"
         stop-color="#000000"
         id="stop458" /><stop
         offset="1"
         stop-color="#000000"
         stop-opacity="0"
         id="stop460" /></linearGradient><linearGradient
       id="gradient_foot_right_layer_1"><stop
         offset="0"
         stop-color="#3e2a06"
         id="stop463" /><stop
         offset="1"
         stop-color="#ad780a"
         id="stop465" /></linearGradient><linearGradient
       id="gradient_foot_right_glare"><stop
         offset="0"
         stop-color="#f3cd0c"
         id="stop468" /><stop
         offset="1"
         stop-color="#f3cd0c"
         stop-opacity="0"
         id="stop470" /></linearGradient><linearGradient
       id="gradient_eyeball"><stop
         offset="0"
         stop-color="#fefefc"
         id="stop473" /><stop
         offset="0.75"
         stop-color="#fefefc"
         id="stop475" /><stop
         offset="1"
         stop-color="#d4d4d4"
         id="stop477" /></linearGradient><linearGradient
       id="gradient_pupil_left_glare"><stop
         offset="0"
         stop-color="#757574"
         stop-opacity="0"
         id="stop480" /><stop
         offset="0.25"
         stop-color="#757574"
         id="stop482" /><stop
         offset="0.5"
         stop-color="#757574"
         id="stop484" /><stop
         offset="1"
         stop-color="#757574"
         stop-opacity="0"
         id="stop486" /></linearGradient><linearGradient
       id="gradient_pupil_right_glare_2"><stop
         offset="0"
         stop-color="#949494"
         stop-opacity="0.39"
         id="stop489" /><stop
         offset="0.5"
         stop-color="#949494"
         id="stop491" /><stop
         offset="1"
         stop-color="#949494"
         stop-opacity="0.39"
         id="stop493" /></linearGradient><linearGradient
       id="gradient_eyelid_left"><stop
         offset="0"
         stop-color="#c8c8c8"
         id="stop496" /><stop
         offset="1"
         stop-color="#797978"
         id="stop498" /></linearGradient><linearGradient
       id="gradient_eyelid_right"><stop
         offset="0"
         stop-color="#747474"
         id="stop501" /><stop
         offset="0.13"
         stop-color="#8c8c8c"
         id="stop503" /><stop
         offset="0.25"
         stop-color="#a4a4a4"
         id="stop505" /><stop
         offset="0.5"
         stop-color="#d4d4d4"
         id="stop507" /><stop
         offset="0.62"
         stop-color="#d4d4d4"
         id="stop509" /><stop
         offset="1"
         stop-color="#7c7c7c"
         id="stop511" /></linearGradient><linearGradient
       id="gradient_eyebrow"><stop
         offset="0"
         stop-color="#646464"
         stop-opacity="0"
         id="stop514" /><stop
         offset="0.31"
         stop-color="#646464"
         stop-opacity="0.58"
         id="stop516" /><stop
         offset="0.47"
         stop-color="#646464"
         id="stop518" /><stop
         offset="0.73"
         stop-color="#646464"
         stop-opacity="0.26"
         id="stop520" /><stop
         offset="1"
         stop-color="#646464"
         stop-opacity="0"
         id="stop522" /></linearGradient><linearGradient
       id="gradient_beak_base"><stop
         offset="0"
         stop-color="#020204"
         id="stop525" /><stop
         offset="0.73"
         stop-color="#020204"
         id="stop527" /><stop
         offset="1"
         stop-color="#5c5c5c"
         id="stop529" /></linearGradient><linearGradient
       id="gradient_mandible_lower"><stop
         offset="0"
         stop-color="#d2940a"
         id="stop532" /><stop
         offset="0.75"
         stop-color="#d89c08"
         id="stop534" /><stop
         offset="0.87"
         stop-color="#b67e07"
         id="stop536" /><stop
         offset="1"
         stop-color="#946106"
         id="stop538" /></linearGradient><linearGradient
       id="gradient_mandible_upper"><stop
         offset="0"
         stop-color="#ad780a"
         id="stop541" /><stop
         offset="0.12"
         stop-color="#d89e08"
         id="stop543" /><stop
         offset="0.25"
         stop-color="#edb80b"
         id="stop545" /><stop
         offset="0.39"
         stop-color="#ebc80d"
         id="stop547" /><stop
         offset="0.53"
         stop-color="#f5d838"
         id="stop549" /><stop
         offset="0.77"
         stop-color="#f6d811"
         id="stop551" /><stop
         offset="1"
         stop-color="#f5cd31"
         id="stop553" /></linearGradient><linearGradient
       id="gradient_nares"><stop
         offset="0"
         stop-color="#3a2903"
         id="stop556" /><stop
         offset="0.55"
         stop-color="#735208"
         id="stop558" /><stop
         offset="1"
         stop-color="#ac8c04"
         id="stop560" /></linearGradient><linearGradient
       id="gradient_beak_corner"><stop
         offset="0"
         stop-color="#f5ce2d"
         id="stop563" /><stop
         offset="1"
         stop-color="#d79b08"
         id="stop565" /></linearGradient><radialGradient
       id="fill_belly_shadow_left"
       href="#gradient_belly_shadow"
       xlink:href="#gradient_belly_shadow"
       gradientUnits="userSpaceOnUse"
       cx="0"
       cy="0"
       r="1"
       gradientTransform="matrix(19,0,0,18,61.18,121.19)" /><radialGradient
       id="fill_belly_shadow_right"
       href="#gradient_belly_shadow"
       xlink:href="#gradient_belly_shadow"
       gradientUnits="userSpaceOnUse"
       cx="0"
       cy="0"
       r="1"
       gradientTransform="matrix(23.6,0,0,18,125.74,131.6)" /><radialGradient
       id="fill_belly_shadow_middle"
       href="#gradient_belly_shadow"
       xlink:href="#gradient_belly_shadow"
       gradientUnits="userSpaceOnUse"
       cx="0"
       cy="0"
       r="1"
       gradientTransform="matrix(9.35,0,0,10,94.21,127.47)" /><linearGradient
       id="fill_foot_left_base"
       href="#gradient_foot_left_layer_1"
       xlink:href="#gradient_foot_left_layer_1"
       gradientUnits="userSpaceOnUse"
       x1="23.18"
       y1="193.01"
       x2="64.31"
       y2="262.02" /><linearGradient
       id="fill_foot_left_glare"
       href="#gradient_foot_left_glare"
       xlink:href="#gradient_foot_left_glare"
       gradientUnits="userSpaceOnUse"
       x1="64.47"
       y1="210.83"
       x2="77.41"
       y2="235.21" /><linearGradient
       id="fill_foot_right_shadow"
       href="#gradient_foot_right_shadow"
       xlink:href="#gradient_foot_right_shadow"
       gradientUnits="userSpaceOnUse"
       x1="146.93"
       y1="211.96"
       x2="150.2"
       y2="235.73" /><linearGradient
       id="fill_foot_right_base"
       href="#gradient_foot_right_layer_1"
       xlink:href="#gradient_foot_right_layer_1"
       gradientUnits="userSpaceOnUse"
       x1="151.5"
       y1="253.02"
       x2="192.94"
       y2="185.84" /><linearGradient
       id="fill_foot_right_glare"
       href="#gradient_foot_right_glare"
       xlink:href="#gradient_foot_right_glare"
       gradientUnits="userSpaceOnUse"
       x1="162.81"
       y1="180.67"
       x2="161.59"
       y2="191.64" /><radialGradient
       id="fill_wing_tip_right_shadow_lower"
       href="#gradient_wing_tip_right_shadow"
       xlink:href="#gradient_wing_tip_right_shadow"
       gradientUnits="userSpaceOnUse"
       cx="0"
       cy="0"
       r="1"
       gradientTransform="matrix(18.990102,5.0883824,-5.3420251,19.936709,169.71,194.53)" /><radialGradient
       id="fill_wing_tip_right_shadow_upper"
       href="#gradient_wing_tip_right_shadow"
       xlink:href="#gradient_wing_tip_right_shadow"
       gradientUnits="userSpaceOnUse"
       cx="0"
       cy="0"
       r="1"
       gradientTransform="matrix(19.722395,-0.83350987,0.62745474,14.846747,169.71,189.89)" /><radialGradient
       id="fill_wing_tip_right_glare_1"
       href="#gradient_wing_tip_right_glare_1"
       xlink:href="#gradient_wing_tip_right_glare_1"
       gradientUnits="userSpaceOnUse"
       cx="0"
       cy="0"
       r="1"
       gradientTransform="matrix(6.3735675,2.771306,-1.2799845,2.9437628,184.65,176.62)" /><linearGradient
       id="fill_wing_tip_right_glare_2"
       href="#gradient_wing_tip_right_glare_2"
       xlink:href="#gradient_wing_tip_right_glare_1"
       gradientUnits="userSpaceOnUse"
       x1="165.69"
       y1="173.58"
       x2="168.27"
       y2="173.47" /><radialGradient
       id="fill_eyeball_left"
       href="#gradient_eyeball"
       xlink:href="#gradient_eyeball"
       gradientUnits="userSpaceOnUse"
       cx="0"
       cy="0"
       r="1"
       gradientTransform="matrix(10.239439,-0.10723107,0.16419757,15.67914,86.49,51.41)" /><linearGradient
       id="fill_pupil_left_glare"
       href="#gradient_pupil_left_glare"
       xlink:href="#gradient_pupil_left_glare"
       gradientUnits="userSpaceOnUse"
       x1="84.29"
       y1="46.64"
       x2="89.32"
       y2="55.63" /><radialGradient
       id="fill_eyelid_left"
       href="#gradient_eyelid_left"
       xlink:href="#gradient_eyelid_left"
       gradientUnits="userSpaceOnUse"
       cx="0"
       cy="0"
       r="1"
       gradientTransform="matrix(6.1669645,-1.015406,0.93742278,5.6933416,84.89,43.74)" /><linearGradient
       id="fill_eyebrow_left"
       href="#gradient_eyebrow"
       xlink:href="#gradient_eyebrow"
       gradientUnits="userSpaceOnUse"
       x1="83.59"
       y1="32.51"
       x2="94.48"
       y2="43.63" /><radialGradient
       id="fill_eyeball_right"
       href="#gradient_eyeball"
       xlink:href="#gradient_eyeball"
       gradientUnits="userSpaceOnUse"
       cx="0"
       cy="0"
       r="1"
       gradientTransform="matrix(13.633269,-0.42844275,0.4925207,15.672263,118.06,51.41)" /><linearGradient
       id="fill_pupil_right_glare"
       href="#gradient_pupil_right_glare_2"
       xlink:href="#gradient_pupil_right_glare_2"
       gradientUnits="userSpaceOnUse"
       x1="117.87"
       y1="47.25"
       x2="123.66"
       y2="54.11" /><linearGradient
       id="fill_eyelid_right"
       href="#gradient_eyelid_right"
       xlink:href="#gradient_eyelid_right"
       gradientUnits="userSpaceOnUse"
       x1="112.9"
       y1="36.23"
       x2="131.32"
       y2="47.01" /><linearGradient
       id="fill_eyebrow_right"
       href="#gradient_eyebrow"
       xlink:href="#gradient_eyebrow"
       gradientUnits="userSpaceOnUse"
       x1="119.16"
       y1="31.56"
       x2="131.42"
       y2="43.14" /><radialGradient
       id="fill_beak_base"
       href="#gradient_beak_base"
       xlink:href="#gradient_beak_base"
       gradientUnits="userSpaceOnUse"
       cx="0"
       cy="0"
       r="1"
       gradientTransform="matrix(9.2551544,-6.7242633,6.1012109,8.3975964,97.64,60.12)" /><radialGradient
       id="fill_mandible_lower_base"
       href="#gradient_mandible_lower"
       xlink:href="#gradient_mandible_lower"
       gradientUnits="userSpaceOnUse"
       cx="0"
       cy="0"
       r="1"
       gradientTransform="matrix(25.101425,-10.346061,7.2670121,17.631093,109.77,70.61)" /><linearGradient
       id="fill_mandible_upper_base"
       href="#gradient_mandible_upper"
       xlink:href="#gradient_mandible_upper"
       gradientUnits="userSpaceOnUse"
       x1="78.09"
       y1="69.26"
       x2="126.77"
       y2="68.88" /><radialGradient
       id="fill_naris_left"
       href="#gradient_nares"
       xlink:href="#gradient_nares"
       gradientUnits="userSpaceOnUse"
       cx="0"
       cy="0"
       r="1"
       gradientTransform="matrix(1.32,0,0,1.42,92.11,59.88)" /><radialGradient
       id="fill_naris_right"
       href="#gradient_nares"
       xlink:href="#gradient_nares"
       gradientUnits="userSpaceOnUse"
       cx="0"
       cy="0"
       r="1"
       gradientTransform="matrix(2.78,0,0,1.62,104.65,59.7)" /><linearGradient
       id="fill_beak_corner"
       href="#gradient_beak_corner"
       xlink:href="#gradient_beak_corner"
       gradientUnits="userSpaceOnUse"
       x1="126.74"
       y1="67.49"
       x2="126.74"
       y2="71.09" /><filter
       id="blur_belly_shadow_left"
       x="-0.049918751"
       y="-0.045849254"
       width="1.0998375"
       height="1.0916985"><feGaussianBlur
         stdDeviation="0.64 0.55"
         id="feGaussianBlur594" /></filter><filter
       id="blur_belly_shadow_right"
       x="-0.050747188"
       y="-0.073202616"
       width="1.1014944"
       height="1.1464052"><feGaussianBlur
         stdDeviation="0.98"
         id="feGaussianBlur597" /></filter><filter
       id="blur_belly_shadow_middle"
       x="-0.087319423"
       y="-0.081681683"
       width="1.1746388"
       height="1.1633634"><feGaussianBlur
         stdDeviation="0.68"
         id="feGaussianBlur600" /></filter><filter
       id="blur_belly_shadow_lower"
       x="-0.81953784"
       width="2.6390757"
       y="-0.057993427"
       height="1.1159869"><feGaussianBlur
         stdDeviation="1.25"
         id="feGaussianBlur603" /></filter><filter
       id="blur_belly_glare"
       x="-0.49197012"
       width="1.9839402"
       y="-0.59291106"
       height="2.1858221"><feGaussianBlur
         stdDeviation="1.78 2.19"
         id="feGaussianBlur606" /></filter><filter
       id="blur_head_glare"
       x="-0.29258274"
       width="1.5851655"
       y="-0.30859164"
       height="1.6171833"><feGaussianBlur
         stdDeviation="1.73"
         id="feGaussianBlur609" /></filter><filter
       id="blur_neck_glare"
       x="-0.17840844"
       width="1.3568169"
       y="-0.1601733"
       height="1.3203466"><feGaussianBlur
         stdDeviation="0.78"
         id="feGaussianBlur612" /></filter><filter
       id="blur_wing_left_glare"
       x="-0.1014502"
       width="1.2029004"
       y="-0.042861973"
       height="1.0857239"><feGaussianBlur
         stdDeviation="0.98"
         id="feGaussianBlur615" /></filter><filter
       id="blur_wing_right_glare"
       x="-0.11789708"
       width="1.2357942"
       y="-0.040211942"
       height="1.0804239"><feGaussianBlur
         stdDeviation="1.19 1.17"
         id="feGaussianBlur618" /></filter><filter
       id="blur_foot_left_layer_1"
       x="-0.10746297"
       width="1.2149259"
       y="-0.1084514"
       height="1.2169028"><feGaussianBlur
         stdDeviation="3.38"
         id="feGaussianBlur621" /></filter><filter
       id="blur_foot_left_layer_2"
       x="-0.075378264"
       y="-0.069657499"
       width="1.1507565"
       height="1.139315"><feGaussianBlur
         stdDeviation="2.1 2.06"
         id="feGaussianBlur624" /></filter><filter
       id="blur_foot_left_glare"
       x="-0.033862433"
       y="-0.018667963"
       width="1.0677249"
       height="1.0373359"><feGaussianBlur
         stdDeviation="0.32"
         id="feGaussianBlur627" /></filter><filter
       id="blur_foot_right_shadow"
       x="-0.076044024"
       y="-0.068073295"
       width="1.152088"
       height="1.1361466"><feGaussianBlur
         stdDeviation="1.95 1.9"
         id="feGaussianBlur630" /></filter><filter
       id="blur_foot_right_layer_1"
       x="-0.14509234"
       width="1.2901847"
       y="-0.14307408"
       height="1.2861482"><feGaussianBlur
         stdDeviation="4.12"
         id="feGaussianBlur633" /></filter><filter
       id="blur_foot_right_layer_2"
       x="-0.11510966"
       width="1.2302193"
       y="-0.12497624"
       height="1.2499525"><feGaussianBlur
         stdDeviation="3.12 3.37"
         id="feGaussianBlur636" /></filter><filter
       id="blur_foot_right_glare"
       x="-0.020750738"
       width="1.0415015"
       y="-0.12827013"
       height="1.2565403"><feGaussianBlur
         stdDeviation="0.41"
         id="feGaussianBlur639" /></filter><filter
       id="blur_wing_tip_right_shadow_lower"
       x="-0.20043875"
       width="1.4008775"
       y="-0.23394803"
       height="1.4678961"><feGaussianBlur
         stdDeviation="2.45"
         id="feGaussianBlur642" /></filter><filter
       id="blur_wing_tip_right_shadow_upper"
       x="-0.091629141"
       width="1.1832583"
       y="-0.10698003"
       height="1.2139601"><feGaussianBlur
         stdDeviation="1.12 0.81"
         id="feGaussianBlur645" /></filter><filter
       id="blur_wing_tip_right_glare"
       x="-0.070171062"
       width="1.1403421"
       y="-0.14997803"
       height="1.2999561"><feGaussianBlur
         stdDeviation="0.88"
         id="feGaussianBlur648" /></filter><filter
       id="blur_pupil_left_glare"
       x="-0.23332936"
       width="1.4666587"
       y="-0.14543877"
       height="1.2908775"><feGaussianBlur
         stdDeviation="0.44"
         id="feGaussianBlur651" /></filter><filter
       id="blur_eyebrow_left"
       x="-0.023848306"
       y="-0.026522859"
       width="1.0476966"
       height="1.0530457"><feGaussianBlur
         stdDeviation="0.12"
         id="feGaussianBlur654" /></filter><filter
       id="blur_pupil_right_glare"
       x="-0.17958931"
       width="1.3591786"
       y="-0.18232284"
       height="1.3646457"><feGaussianBlur
         stdDeviation="0.45"
         id="feGaussianBlur657" /></filter><filter
       id="blur_eyebrow_right"
       x="-0.023600604"
       y="-0.02557377"
       width="1.0472012"
       height="1.0511475"><feGaussianBlur
         stdDeviation="0.13"
         id="feGaussianBlur660" /></filter><filter
       id="blur_beak_shadow_lower"
       x="-0.076201891"
       width="1.1524038"
       y="-0.12887719"
       height="1.2577544"><feGaussianBlur
         stdDeviation="1.75"
         id="feGaussianBlur663" /></filter><filter
       id="blur_beak_shadow_upper"
       x="-0.036392431"
       y="-0.07408861"
       width="1.0727849"
       height="1.1481772"><feGaussianBlur
         stdDeviation="0.8 0.74"
         id="feGaussianBlur666" /></filter><filter
       id="blur_mandible_lower_glare"
       x="-0.15436869"
       width="1.3087374"
       y="-0.21067211"
       height="1.4213442"><feGaussianBlur
         stdDeviation="0.77"
         id="feGaussianBlur669" /></filter><filter
       id="blur_mandible_upper_shadow"
       x="-0.034221465"
       y="-0.078978968"
       width="1.0684429"
       height="1.1579579"><feGaussianBlur
         stdDeviation="0.65"
         id="feGaussianBlur672" /></filter><filter
       id="blur_mandible_upper_glare"
       x="-0.16064714"
       width="1.3212943"
       y="-0.13003773"
       height="1.2600755"><feGaussianBlur
         stdDeviation="0.73"
         id="feGaussianBlur675" /></filter><filter
       id="blur_naris_left"
       x="-0.12244099"
       width="1.244882"
       y="-0.11124302"
       height="1.222486"><feGaussianBlur
         stdDeviation="0.1"
         id="feGaussianBlur678" /></filter><filter
       id="blur_naris_right"
       x="-0.049122258"
       y="-0.093498015"
       width="1.0982445"
       height="1.186996"><feGaussianBlur
         stdDeviation="0.1"
         id="feGaussianBlur681" /></filter><filter
       id="blur_beak_corner"
       x="-0.11091169"
       width="1.2218234"
       y="-0.090640126"
       height="1.1812803"><feGaussianBlur
         stdDeviation="0.23"
         id="feGaussianBlur684" /></filter><clipPath
       id="clip_body"><use
         href="#body_base"
         xlink:href="#body_base"
         id="use687" /></clipPath><clipPath
       id="clip_wing_left"><use
         href="#wing_left_base"
         xlink:href="#wing_left_base"
         id="use690" /></clipPath><clipPath
       id="clip_wing_right"><use
         href="#wing_right_base"
         xlink:href="#wing_right_base"
         id="use693" /></clipPath><clipPath
       id="clip_foot_left"><use
         href="#foot_left_base"
         xlink:href="#foot_left_base"
         id="use696" /></clipPath><clipPath
       id="clip_foot_right"><use
         href="#foot_right_base"
         xlink:href="#foot_right_base"
         id="use699" /></clipPath><clipPath
       id="clip_wing_tip_right"><use
         href="#wing_tip_right_base"
         xlink:href="#wing_tip_right_base"
         id="use702" /></clipPath><clipPath
       id="clip_eye_left"><use
         href="#eyeball_left"
         xlink:href="#eyeball_left"
         id="use705" /></clipPath><clipPath
       id="clip_pupil_left"><use
         href="#pupil_left_base"
         xlink:href="#pupil_left_base"
         id="use708" /></clipPath><clipPath
       id="clip_eye_right"><use
         href="#eyeball_right"
         xlink:href="#eyeball_right"
         id="use711" /></clipPath><clipPath
       id="clip_pupil_right"><use
         href="#pupil_right_base"
         xlink:href="#pupil_right_base"
         id="use714" /></clipPath><clipPath
       id="clip_mandible_lower"><use
         href="#mandible_lower_base"
         xlink:href="#mandible_lower_base"
         id="use717" /></clipPath><clipPath
       id="clip_mandible_upper"><use
         href="#mandible_upper_base"
         xlink:href="#mandible_upper_base"
         id="use720" /></clipPath><clipPath
       id="clip_beak"><use
         href="#mandible_lower_base"
         xlink:href="#mandible_lower_base"
         id="use723" /><use
         href="#mandible_upper_base"
         xlink:href="#mandible_upper_base"
         id="use725" /></clipPath><path
       id="path_wing_tip_right_glare"
       d="m 168.89,171.07 c -0.47,0.03 -0.93,0.08 -1.4,0.17 -2.99,0.53 -5.73,2.42 -7.27,5.03 -1.09,1.85 -1.58,4.03 -1.43,6.17 0.07,-1.5 0.46,-2.97 1.19,-4.28 1.23,-2.23 3.47,-3.91 5.98,-4.37 1.54,-0.28 3.13,-0.11 4.68,0.08 1.5,0.19 3,0.39 4.47,0.7 2.28,0.5 4.53,1.26 6.44,2.59 0.44,0.31 0.86,0.66 1.21,1.08 0.35,0.41 0.62,0.89 0.73,1.42 0.15,0.78 -0.07,1.6 -0.46,2.29 -0.39,0.7 -0.92,1.3 -1.48,1.86 -0.46,0.46 -0.94,0.89 -1.43,1.32 2.21,-0.43 4.44,-1.03 6.28,-2.31 0.77,-0.55 1.48,-1.2 1.94,-2.02 0.46,-0.83 0.65,-1.83 0.43,-2.75 -0.16,-0.62 -0.5,-1.19 -0.92,-1.67 -0.42,-0.48 -0.93,-0.87 -1.45,-1.24 -2.31,-1.62 -5.01,-2.65 -7.81,-2.99 -1.8,-0.33 -3.61,-0.61 -5.42,-0.83 -1.41,-0.18 -2.86,-0.33 -4.28,-0.25 z" /></defs><g
     inkscape:label="Layer 1"
     inkscape:groupmode="layer"
     id="layer1"><g
       id="g3338"
       clip-path="url(#clipPath3352)"
       transform="matrix(0.21583147,0,0,0.21583147,286.3479,73.345637)"><rect
         transform="rotate(0.9584971)"
         y="272.3732"
         x="39.769188"
         height="111.00977"
         width="30.381622"
         id="rect2988"
         style="fill:#ffffff;fill-opacity:1;fill-rule:evenodd;stroke:none" /><rect
         y="467.31903"
         x="72.54586"
         height="16.651466"
         width="30.186871"
         id="rect2985"
         style="fill:#ffffff;fill-rule:evenodd;stroke:none" /><rect
         transform="matrix(1,0,0.00488359,0.99998808,0,0)"
         ry="61.0308"
         y="34.393002"
         x="33.934452"
         height="450.09006"
         width="452.29196"
         id="rect2991"
         style="fill:#ffffff;fill-rule:evenodd;stroke:#000000;stroke-width:0;stroke-linecap:butt;stroke-linejoin:miter;stroke-miterlimit:4;stroke-dasharray:none;stroke-opacity:1" /><g
         transform="matrix(1.0039502,0,0,0.97693713,-1.310851,5.1499063)"
         id="g2982"><path
           sodipodi:nodetypes="cscsscssssssssssssssssssscccssssssssssssssscssssssscssscsscsssssscssssssssssssssssssssssssssssssssssssscsssssscssssssssss"
           inkscape:connector-curvature="0"
           id="path2986"
           d="m 144.25495,492.68335 c -0.23461,-0.2235 -14.89211,0.27714 -32.34995,0.0465 -18.854712,-0.24903 11.519,-0.0303 -8.75802,0.043 -1.24009,-0.0224 -5.566017,-0.42124 -7.558399,-0.58445 -50.961601,-4.17469 0.760826,-0.72632 0.944561,-2.78022 l 0.0949,-1.06085 0.922366,-3.15042 c 7.163292,-24.46686 3.560682,-67.14907 1.658787,-75.15616 -3.474112,-14.62623 -11.388653,-22.80952 -45.26111,-46.79804 -8.758629,-6.20287 -16.682248,-11.55293 -17.608042,-11.88903 -1.540836,-0.55937 -1.683263,-2.61016 -1.683263,-24.23714 0,-18.07228 0.282631,-23.70861 1.202331,-23.97726 0.661281,-0.19317 11.590466,-3.02937 24.287076,-6.30266 38.576269,-9.94531 49.497663,-14.02575 57.999643,-21.66977 8.36009,-7.51644 12.28095,-16.81702 25.31947,-60.05988 11.607,-38.49511 18.28519,-53.93252 23.66171,-54.69685 5.27634,-0.75008 16.9796,13.90157 38.2674,47.90802 26.52239,42.36853 32.13541,48.36398 49.26834,52.62495 5.61887,1.39742 12.78596,1.63155 52.20166,1.70538 40.58893,0.076 46.32657,0.27399 51.40463,1.77369 9.7337,2.87462 9.97819,3.68784 4.42858,14.73025 -4.03552,8.02975 -14.75465,22.66051 -35.34545,48.24377 -6.93639,8.6182 -15.04833,19.29404 -18.02654,23.72408 -14.695,21.85869 -14.35634,29.87384 3.4532,81.72919 9.7994,28.53252 12.78604,38.62855 14.58818,49.31382 l 1.26632,7.50836 9.94028,0.27571 9.94028,0.27572 -0.59423,-8.45157 c -0.79277,-11.27543 -3.79028,-22.49151 -14.59755,-54.62105 -9.67731,-28.77023 -12.97407,-40.80572 -12.98486,-47.40379 -0.012,-7.36054 5.84384,-16.37595 28.87486,-44.45426 28.98829,-35.34111 37.77581,-49.72872 39.11195,-64.0371 1.04186,-11.1571 -4.91439,-20.82115 -15.86029,-25.73338 -11.30935,-5.07533 -19.42705,-5.76947 -68.48496,-5.85607 -39.07105,-0.069 -45.15993,-0.27604 -48.15282,-1.63757 -6.14537,-2.79564 -12.50422,-11.41538 -34.32904,-46.53461 -28.59073,-46.00654 -42.41508,-58.53369 -59.95217,-54.3266 -14.31187,3.43337 -24.06156,19.70498 -36.00964,60.09779 -12.67757,42.85898 -17.2011,55.58399 -21.49331,60.46216 -2.64297,3.00379 -11.859413,7.10829 -23.838986,10.6166 -12.964199,3.79666 -41.451017,11.31345 -43.622335,11.51058 -1.274426,0.11571 -1.442797,-12.04783 -1.442797,-104.23129 V 71.260613 l 2.223553,-6.435299 C 41.866958,51.785131 53.302031,38.695856 65.636686,32.459537 77.912461,26.252987 67.323941,26.56897 263.64432,26.5506 c 122.52607,-0.01147 180.27915,0.305641 184.19703,1.011375 9.53843,1.71817 20.87826,7.81965 28.18943,15.167543 7.87832,7.917891 13.81871,18.937838 15.43346,28.630431 0.81223,4.875448 1.03277,55.582201 0.8321,191.311661 l -0.27304,184.67796 -2.6224,7.18876 c -5.0684,13.89389 -14.3175,24.69254 -26.71446,31.19011 -14.15375,7.41833 0.91797,6.78033 -167.41878,7.08696 -82.82238,0.15086 -150.7781,0.0915 -151.01271,-0.13205 z m 58.8962,-5.65687 c 7.47306,-3.91481 11.43071,-3.88986 23.978,0.15112 l 9.23718,2.97494 h 27.7465 c 16.84774,0 36.02001,1.44768 35.46517,0.91207 -1.9867,-1.91781 -63.52772,-24.26183 -72.32162,-26.53123 -12.43442,-3.20891 -21.1249,-2.84022 -30.04452,1.27464 -9.04474,4.17258 24.86744,-16.71532 -33.66525,23.43888 -5.39078,3.69815 6.87779,1.57575 16.74997,1.32853 l 16.88717,-0.42289 z M 414.63442,193.65784 c 4.60145,-3.10108 7.26787,-9.04872 11.13366,-24.83438 1.8696,-7.63436 4.07495,-14.62954 4.90079,-15.54484 0.82584,-0.9153 5.01313,-2.98197 9.30509,-4.59258 4.29197,-1.61062 10.7259,-4.03834 14.29763,-5.39491 3.86277,-1.46713 8.28448,-4.0882 10.91288,-6.46886 3.73383,-3.3819 4.49576,-4.68592 4.91499,-8.41182 0.90174,-8.01407 -3.0719,-12.6277 -19.43633,-22.56674 -15.819,-9.607771 -14.90535,-8.26094 -14.92824,-22.00608 -0.0348,-20.903293 -2.28579,-29.114725 -8.9258,-32.560583 -6.94558,-3.604432 -14.93035,0.08023 -30.4913,14.070535 -4.49671,4.042842 -9.23639,7.636883 -10.53261,7.986755 -1.30739,0.352884 -4.94781,-0.0922 -8.17585,-0.99961 -27.8229,-7.821017 -31.98715,-8.059974 -37.86988,-2.173098 -3.43188,3.434305 -3.53729,3.749617 -3.50854,10.495666 0.0265,6.216916 0.61359,8.384041 5.53211,20.421095 3.02635,7.40636 5.50184,14.21021 5.50108,15.11967 -7.6e-4,0.90946 -3.28739,6.47165 -7.3036,12.36041 -9.51989,13.9585 -12.09807,19.20214 -12.27417,24.96393 -0.16582,5.42511 1.95069,8.90764 7.08809,11.66287 3.94712,2.11686 13.20321,2.34795 27.75719,0.69299 5.26165,-0.59831 10.60735,-0.82663 11.87931,-0.50739 1.45135,0.36426 4.78919,3.90397 8.96214,9.50415 8.12386,10.90236 13.46377,16.82793 17.27312,19.16755 3.9968,2.45475 10.0208,2.28907 13.98824,-0.38473 z m -15.91005,-25.04018 c -7.36264,-10.08652 -12.63041,-15.84569 -16.16606,-17.67404 -3.18251,-1.64574 -14.71666,-1.82277 -27.03245,-0.41493 -7.39359,0.84519 -10.18688,0.61995 -10.18688,-0.82142 0,-0.38573 3.10059,-5.20886 6.89019,-10.71806 9.41159,-13.68226 11.78152,-19.03278 11.0745,-25.00248 -0.30392,-2.56622 -2.73896,-9.96319 -5.41118,-16.437706 -2.67223,-6.474519 -4.85859,-12.332839 -4.85859,-13.018489 0,-1.876394 2.6186,-1.539909 13.58148,1.745199 5.49131,1.645509 12.65285,3.216769 15.91454,3.491688 7.72649,0.651245 11.63428,-1.245229 22.44465,-10.892529 9.56189,-8.53313 12.10409,-10.379805 13.28473,-9.650129 0.47578,0.294057 1.09963,7.14858 1.38629,15.232273 0.28668,8.083693 1.02507,15.996143 1.64089,17.583213 1.85557,4.78225 6.67216,8.94219 18.60305,16.06689 7.65422,4.57082 11.25557,7.2609 11.06144,8.2625 -0.18014,0.92942 -4.42673,2.98758 -11.34928,5.50055 -22.4447,8.1477 -23.50148,9.26324 -28.31715,29.89196 -3.44016,14.73651 -3.4718,14.82616 -5.21982,14.79089 -0.86409,-0.0174 -4.16725,-3.58836 -7.34035,-7.93538 z M 69.80766,488.96871 c -4.376171,-1.58862 -13.065684,-6.93405 -17.551358,-10.79688 -5.781071,-4.97836 -13.00232,-16.27732 -15.733869,-24.61849 -2.304789,-7.038 -2.346586,-7.76014 -2.346586,-40.54264 0,-23.82368 0.315827,-33.69275 1.103423,-34.48012 0.82987,-0.82964 4.168284,1.09834 13.466101,7.7768 21.400319,15.3715 27.842218,21.45701 29.284184,27.6641 1.206134,5.19192 1.079217,33.24438 -0.254366,56.22237 -1.287428,22.18276 -0.925979,21.33103 -7.967529,18.77486 z"
           style="fill:#a3a3a3" /><path
           sodipodi:nodetypes="cssscscssssssssssssssscsccsssscscssssssssssssssss"
           inkscape:connector-curvature="0"
           id="path2984"
           d="m 96.209218,491.11284 c -0.326803,-0.52878 3.508112,-11.80694 4.313582,-24.02707 1.68852,-25.61725 -0.43654,-48.88231 -1.832592,-56.24362 -3.028105,-15.96715 -11.931831,-24.80022 -52.111155,-52.75843 -5.554767,-3.86521 -11.290522,-6.76284 -11.67919,-7.35288 -0.388668,-0.59002 -0.499648,-22.88639 -0.430416,-24.16017 l 0.373245,-22.73852 3.191987,-1.31729 c 1.314789,-0.54259 12.423842,-2.75222 24.655608,-5.96797 37.614963,-9.88902 46.861793,-14.31867 55.551413,-22.13139 8.47323,-7.61816 13.14723,-18.48427 24.94701,-58.37633 4.27571,-14.45508 9.89885,-31.721 12.02166,-37.15046 3.84673,-9.83869 9.47429,-20.54403 12.32185,-19.26553 1.73297,0.77807 8.26213,0.62696 19.27495,19.1544 2.64005,4.44149 11.2862,16.89708 18.86046,28.98264 21.98909,35.08597 29.49304,43.70098 38.90565,48.82397 10.50826,5.71931 8.15269,5.35652 56.89984,5.54362 53.42221,0.20505 66.59493,1.57186 66.59493,7.05077 0,6.65658 -11.55054,24.08824 -40.44425,59.64988 -12.74809,15.69004 -21.74788,27.45607 -25.61436,35.61982 -2.9313,6.18917 -3.12314,6.42383 -3.11149,16.3682 0.009,7.68381 3.39821,16.45427 17.41914,58.19279 10.82088,32.21237 14.36591,48.39175 12.43439,51.39604 -0.90537,1.40817 -9.27133,0.61988 -19.94677,0.7683 l -10.17343,0.14145 -6.38658,-2.33639 -23.22605,-8.49675 c -39.01079,-14.27125 -43.48406,-17.03949 -55.93602,-17.17182 -8.89548,-0.0946 -9.90334,0.32395 -15.79141,3.11378 -7.59541,3.5988 -19.1807,14.17698 -30.27641,21.85667 l -4.39373,3.04104 -33.36956,0.0524 c -18.62087,0.0292 -32.660862,0.3561 -33.042302,-0.26115 z M 398.49393,169.36639 c -14.87374,-20.65781 -19.05543,-20.14809 -42.95021,-17.55972 -5.68875,0.61622 -10.63635,-1.07576 -10.99466,-1.43406 -0.35831,-0.35831 4.24931,-7.5489 7.97586,-12.96405 13.14121,-19.09589 12.82679,-20.06681 5.37824,-38.537114 -4.18478,-10.377095 -5.58113,-15.094393 -4.88312,-15.753387 0.89585,-0.845777 8.39286,1.060102 14.732,2.958789 20.12069,6.026514 21.90667,5.74777 37.82135,-8.178562 4.83645,-4.232203 10.81762,-9.104543 12.54463,-9.034062 0.80993,0.03305 1.5067,6.609112 1.88525,16.824335 0.76227,20.570801 2.50763,21.635421 21.50256,32.928371 5.52552,3.28507 9.84065,7.23955 9.84065,7.84016 0,0.60061 -5.42272,3.58791 -9.78718,5.08786 -24.08864,8.27859 -25.1249,9.56001 -30.31851,31.44296 -1.51131,6.36782 -3.47299,13.27963 -3.99368,13.74944 -1.24851,1.12651 -5.35717,-2.65432 -8.75318,-7.37096 z"
           style="fill:#166fa8" /></g></g><g
       id="g360"
       transform="matrix(0.17666807,0,0,0.17666807,397.29826,59.594842)"><path
         d="m 158.375,1.65625 c -3.6193,0.1123192 -7.51715,1.4493266 -11.9375,4.9375 C 135.61054,2.4174496 125.11041,0.9665612 115.71875,9.46875 101.22489,7.5879922 96.508461,11.469494 92.9375,16 89.754953,15.934135 69.118652,12.72793 59.65625,26.84375 35.874602,24.030329 28.359472,40.831625 36.875,56.5 c -4.856911,7.518955 -9.889503,14.947226 1.46875,29.28125 -4.018006,7.983514 -1.527431,16.64403 7.9375,27.125 -2.497857,11.2226 2.412077,19.14086 11.21875,25.3125 -1.64709,15.35756 14.083505,24.28743 18.78125,27.46875 1.803677,8.94868 5.56291,17.3927 23.53125,22.0625 2.96323,13.3361 13.76206,15.63906 24.21875,18.4375 -34.561929,20.08954 -64.20067,46.52266 -64,111.375 l -5.0625,9.03125 C 15.337882,350.69604 -20.316547,428.16001 35.4375,491.125 c 3.641871,19.70838 9.749589,33.86396 15.1875,49.53125 8.133834,63.13058 61.21763,92.69161 75.21875,96.1875 20.51653,15.62812 42.36818,30.45672 71.9375,40.84375 27.87515,28.74946 58.07388,39.7064 88.4375,39.6875 0.44515,-2.8e-4 0.89853,0.005 1.34375,0 30.36363,0.0189 60.56235,-10.93804 88.4375,-39.6875 29.56932,-10.38703 51.42097,-25.21563 71.9375,-40.84375 14.00112,-3.49589 67.08492,-33.05692 75.21875,-96.1875 5.43791,-15.66729 11.54562,-29.82287 15.1875,-49.53125 55.75404,-62.96499 20.09961,-140.42896 -19.53125,-164.53125 L 513.75,317.5625 c 0.20067,-64.85234 -29.43807,-91.28546 -64,-111.375 10.45669,-2.79844 21.25552,-5.1014 24.21875,-18.4375 17.96834,-4.6698 21.72758,-13.11382 23.53125,-22.0625 4.69775,-3.18132 20.42834,-12.11119 18.78125,-27.46875 8.80668,-6.17164 13.71661,-14.0899 11.21875,-25.3125 9.46494,-10.48097 11.9555,-19.141487 7.9375,-27.125 C 546.79575,71.447226 541.76316,64.018955 536.90625,56.5 545.42178,40.831625 537.90665,24.030329 514.125,26.84375 504.6626,12.72793 484.0263,15.934135 480.84375,16 477.27279,11.469494 472.55636,7.587992 458.0625,9.46875 448.67084,0.96656132 438.17071,2.41745 427.34375,6.59375 414.48455,-3.5536631 405.97149,4.580454 396.25,7.65625 380.67615,2.568472 377.11698,9.5371578 369.46875,12.375 352.4935,8.7869238 347.33315,16.598532 339.1875,24.84375 l -9.46875,-0.1875 c -25.61054,15.093115 -38.33378,45.825501 -42.84375,61.625 -4.51206,-15.801979 -17.20647,-46.534542 -42.8125,-61.625 l -9.46875,0.1875 C 226.4481,16.598532 221.28775,8.7869235 204.3125,12.375 196.66427,9.5371583 193.1051,2.5684729 177.53125,7.65625 c -6.37973,-2.0184911 -12.24667,-6.2144276 -19.15625,-6 z"
         style="fill:#000000"
         id="path312" /><path
         d="m 107.39184,68.055583 c 67.94767,35.031357 107.44689,63.368967 129.08717,87.504467 -11.08235,44.41759 -68.89638,46.44464 -90.03559,45.19858 4.32842,-2.01474 7.93988,-4.42778 9.22051,-8.13574 -5.30449,-3.76981 -24.11289,-0.39719 -37.24363,-7.77416 5.04407,-1.04499 7.40348,-2.06302 9.76289,-5.78542 -12.40571,-3.9567 -25.76862,-7.36642 -33.627746,-13.92116 4.241253,0.0524 8.201156,0.9488 13.740366,-2.89271 -11.111694,-5.98819 -22.969108,-10.73351 -32.18139,-19.88738 5.745213,-0.14063 11.939452,-0.0568 13.740371,-2.16953 -10.17044,-6.30068 -18.751242,-13.30787 -25.853592,-20.97215 8.039979,0.97052 11.435284,0.13478 13.378782,-1.26556 -7.687795,-7.87419 -17.417559,-14.52319 -22.056911,-24.22644 5.969606,2.057484 11.431249,2.84506 15.36752,-0.180795 -2.612365,-5.893453 -13.805413,-9.369618 -20.248967,-23.141676 6.284359,0.609377 12.949606,1.371108 14.282753,0 C 61.802068,58.517346 56.796919,51.835885 51.887978,44.913906 65.338021,44.714177 85.715734,44.966253 84.792549,43.82914 l -8.31654,-8.497335 c 13.137617,-3.537241 26.580651,0.568164 36.339661,3.615887 4.38186,-3.457681 -0.0776,-7.82998 -5.42383,-12.294015 11.16496,1.490646 21.25382,4.057389 30.37345,7.593362 4.87238,-4.399329 -3.16389,-8.798658 -7.05098,-13.197987 17.24936,3.272568 24.55716,7.87068 31.81981,12.47481 5.26935,-5.050799 0.30166,-9.343299 -3.2543,-13.740371 13.00566,4.817048 19.70478,11.035551 26.75756,17.175463 2.39119,-3.227053 6.07494,-5.592408 1.62715,-13.378781 9.23416,5.322725 16.18926,11.59506 21.33374,18.621817 5.71336,-3.637941 3.40387,-8.613023 3.43509,-13.197987 9.59665,7.806516 15.68687,16.11395 23.14168,24.226443 1.50169,-1.093437 2.81661,-4.80171 3.97747,-10.666867 22.89539,22.211815 55.24591,78.158241 8.31654,100.340861 C 207.95028,109.95728 160.25292,86.016909 107.39184,68.055583 Z"
         style="fill:#75a928"
         id="path314" /><path
         d="M 467.92487,68.055583 C 399.9772,103.08694 360.47798,131.42455 338.8377,155.56005 c 11.08235,44.41759 68.89638,46.44464 90.03559,45.19858 -4.32842,-2.01474 -7.93988,-4.42778 -9.22051,-8.13574 5.30449,-3.76981 24.11289,-0.39719 37.24363,-7.77416 -5.04407,-1.04499 -7.40348,-2.06302 -9.76289,-5.78542 12.40571,-3.9567 25.76862,-7.36642 33.62775,-13.92116 -4.24126,0.0524 -8.20116,0.9488 -13.74037,-2.89271 11.11169,-5.98819 22.96911,-10.73351 32.18139,-19.88738 -5.74521,-0.14063 -11.93945,-0.0568 -13.74037,-2.16953 10.17044,-6.30068 18.75124,-13.30787 25.85359,-20.97215 -8.03998,0.97052 -11.43528,0.13478 -13.37878,-1.26556 7.68779,-7.87419 17.41756,-14.52319 22.05691,-24.22644 -5.96961,2.057484 -11.43125,2.84506 -15.36752,-0.180795 2.61237,-5.893453 13.80541,-9.369618 20.24897,-23.141676 -6.28436,0.609377 -12.94961,1.371108 -14.28276,0 2.92231,-11.888563 7.92746,-18.570024 12.8364,-25.492003 -13.45004,-0.199729 -33.82775,0.05235 -32.90457,-1.084766 l 8.31654,-8.497335 c -13.13762,-3.537241 -26.58065,0.568164 -36.33966,3.615887 -4.38186,-3.457681 0.0776,-7.82998 5.42383,-12.294015 -11.16496,1.490646 -21.25382,4.057389 -30.37345,7.593362 -4.87238,-4.399329 3.16389,-8.798658 7.05098,-13.197987 -17.24936,3.272568 -24.55716,7.87068 -31.81981,12.47481 -5.26935,-5.050799 -0.30166,-9.343299 3.2543,-13.740371 -13.00566,4.817048 -19.70478,11.035551 -26.75756,17.175463 -2.39119,-3.227053 -6.07494,-5.592408 -1.62715,-13.378781 -9.23416,5.322725 -16.18926,11.59506 -21.33374,18.621817 -5.71336,-3.637941 -3.40387,-8.613023 -3.43509,-13.197987 -9.59665,7.806516 -15.68687,16.11395 -23.14168,24.226443 -1.50169,-1.093437 -2.81661,-4.80171 -3.97747,-10.666867 -22.89539,22.211815 -55.24591,78.158241 -8.31654,100.340861 39.91877,-32.94716 87.61613,-56.887531 140.47721,-74.848857 z"
         style="fill:#75a928"
         id="path316" /><path
         d="m 365.2046,521.84937 a 71.956155,66.532319 0 1 1 -143.91231,0 71.956155,66.532319 0 1 1 143.91231,0 z"
         transform="matrix(1.131107,0,0,1.1280497,-43.139135,-68.310983)"
         style="fill:#bc1142"
         id="path318" /><path
         d="m 262.84091,276.64774 a 61.875,28.125 0 1 1 -123.75,0 61.875,28.125 0 1 1 123.75,0 z"
         transform="matrix(0.76741684,-1.1613112,2.171115,1.4224368,-560.88858,217.68859)"
         style="fill:#bc1142"
         id="path320" /><path
         d="m 262.84091,276.64774 a 61.875,28.125 0 1 1 -123.75,0 61.875,28.125 0 1 1 123.75,0 z"
         transform="matrix(-0.76741684,-1.1613112,-2.171115,1.4224368,1134.8288,213.68859)"
         style="fill:#bc1142"
         id="path322" /><path
         d="M 72.910253,342.0878 C 109.32447,332.33088 85.201845,492.72431 55.576871,479.56357 22.990103,453.35089 12.493801,376.58814 72.910253,342.0878 Z"
         style="fill:#bc1142"
         id="path324" /><path
         d="m 493.67828,340.0878 c -36.41422,-9.75692 -12.2916,150.63651 17.33338,137.47577 32.58677,-26.21268 43.08307,-102.97543 -17.33338,-137.47577 z"
         style="fill:#bc1142"
         id="path326" /><path
         d="m 369.97158,220.6534 c 62.83486,-10.61013 115.11594,26.72229 113.01138,94.85796 -2.06693,26.12112 -136.15872,-90.96907 -113.01138,-94.85796 z"
         style="fill:#bc1142"
         id="path328" /><path
         d="M 196.35975,218.6534 C 133.52489,208.04327 81.24381,245.37569 83.34837,313.51136 85.4153,339.63248 219.50709,222.54229 196.35975,218.6534 Z"
         style="fill:#bc1142"
         id="path330" /><path
         d="m 286.61932,202.75568 c -37.50259,-0.97548 -73.49548,27.83418 -73.58158,44.54443 -0.10462,20.30426 29.6512,41.09266 73.83726,41.62035 45.12305,0.32321 73.91561,-16.64049 74.0611,-37.59409 0.16484,-23.73996 -41.03879,-48.93744 -74.31678,-48.57069 z"
         style="fill:#bc1142"
         id="path332" /><path
         d="m 288.90937,619.11675 c 32.69744,-1.42711 76.57083,10.53196 76.6568,26.39598 0.5427,15.4052 -39.78969,50.21055 -78.82634,49.53765 -40.42729,1.74391 -80.06908,-33.11559 -79.54951,-45.19859 -0.60506,-17.71593 49.226,-31.54796 81.71905,-30.73504 z"
         style="fill:#bc1142"
         id="path334" /><path
         d="m 168.13874,525.10369 c 23.2791,28.04573 33.89066,77.31899 14.46355,91.84353 -18.37917,11.08784 -63.01228,6.52162 -94.736237,-39.05157 -21.395052,-38.24168 -18.637584,-77.15663 -3.615887,-88.58924 22.464424,-13.68429 57.173424,4.79902 83.888574,35.79728 z"
         style="fill:#bc1142"
         id="path336" /><path
         d="m 405.0209,516.21177 c -25.18682,29.50165 -39.21227,83.30951 -20.83785,100.6428 17.56828,13.46361 64.7292,11.58162 99.56566,-36.75574 25.29599,-32.46471 16.82013,-86.68225 2.37077,-101.07511 -21.46408,-16.60213 -52.27691,4.64489 -81.09858,37.18805 z"
         style="fill:#bc1142"
         id="path338" /></g><g
       id="tux"
       transform="matrix(0.54390909,0,0,0.54390909,29.78406,272.07727)"><g
         id="body"><path
           id="body_base"
           fill="#020204"
           d="m 106.95,0 c -6,0 -12.02,1.18 -17.46,4.12 -5.78,3.11 -10.52,8.09 -13.43,13.97 -2.92,5.88 -4.06,12.16 -4.24,19.08 -0.33,13.14 0.3,26.92 1.29,39.41 0.26,3.8 0.74,6.02 0.25,9.93 -1.62,8.3 -8.88,13.88 -12.76,21.17 -4.27,8.04 -6.07,17.13 -9.29,25.65 -2.95,7.79 -7.09,15.1 -9.88,22.95 -3.91,10.97 -5.08,23.03 -2.5,34.39 1.97,8.66 6.08,16.78 11.62,23.73 -0.8,1.44 -1.58,2.91 -2.4,4.34 -2.57,4.43 -5.71,8.64 -7.17,13.55 -0.73,2.45 -1.02,5.07 -0.55,7.59 0.47,2.52 1.75,4.93 3.75,6.53 1.31,1.04 2.9,1.72 4.53,2.1 1.63,0.37 3.32,0.46 5,0.43 6.37,-0.14 12.55,-2.07 18.71,-3.69 3.66,-0.96 7.34,-1.81 11.03,-2.58 13.14,-2.69 27.8,-1.61 39.99,0.15 4.13,0.63 8.23,1.44 12.29,2.43 6.36,1.54 12.69,3.5 19.23,3.69 1.72,0.05 3.46,-0.03 5.14,-0.4 1.68,-0.38 3.31,-1.06 4.65,-2.13 2.01,-1.6 3.29,-4.02 3.76,-6.54 0.47,-2.52 0.18,-5.15 -0.56,-7.61 -1.48,-4.92 -4.65,-9.11 -7.27,-13.52 -1.04,-1.75 -2,-3.53 -3.03,-5.28 7.9,-8.87 14.26,-19.13 17.94,-30.4 4.01,-12.3 4.75,-25.55 3.06,-38.38 -1.69,-12.83 -5.76,-25.27 -11.11,-37.05 -6.72,-14.76 -12.37,-20.1 -16.47,-33.07 -4.42,-14.02 -0.77,-30.61 -4.06,-43.32 -1.17,-4.32 -3.04,-8.45 -5.45,-12.23 -2.82,-4.43 -6.4,-8.39 -10.65,-11.47 C 124.13,2.62 115.61,0 106.95,0 Z" /><path
           id="belly"
           fill="#fdfdfb"
           d="m 83.13,74 c -0.9,1.13 -1.48,2.49 -1.84,3.89 -0.35,1.4 -0.48,2.85 -0.54,4.3 -0.11,2.89 0.07,5.83 -0.7,8.62 -0.82,2.98 -2.65,5.57 -4.44,8.08 -3.11,4.36 -6.25,8.84 -7.78,13.97 -0.93,3.1 -1.24,6.39 -0.91,9.62 -3.47,5.1 -6.48,10.53 -8.98,16.18 -3.78,8.57 -6.37,17.69 -7.28,27.01 -1.12,11.41 0.34,23.15 4.85,33.69 3.25,7.63 8.11,14.6 14.38,20.04 3.18,2.76 6.72,5.11 10.5,6.97 13.11,6.45 29.31,6.46 42.2,-0.41 6.74,-3.59 12.43,-8.84 17.91,-14.15 3.3,-3.2 6.59,-6.48 9.11,-10.32 4.85,-7.41 6.54,-16.41 7.59,-25.2 1.83,-15.36 1.89,-31.6 -4.85,-45.53 -2.32,-4.8 -5.41,-9.22 -9.12,-13.05 -0.98,-6.7 -2.93,-13.27 -5.76,-19.42 -2.05,-4.45 -4.54,-8.68 -6.44,-13.18 -0.78,-1.85 -1.46,-3.75 -2.32,-5.56 -0.87,-1.81 -1.93,-3.55 -3.39,-4.94 -1.48,-1.42 -3.33,-2.43 -5.28,-3.07 -1.95,-0.65 -4.01,-0.94 -6.06,-1.04 -4.11,-0.21 -8.22,0.33 -12.33,0.16 -3.27,-0.13 -6.53,-0.7 -9.8,-0.51 -1.63,0.1 -3.26,0.39 -4.78,1.01 -1.52,0.61 -2.92,1.56 -3.94,2.84 z" /><g
           id="body_self_shadows"><path
             id="belly_shadow_left"
             opacity="0.25"
             fill="url(#fill_belly_shadow_left)"
             filter="url(#blur_belly_shadow_left)"
             clip-path="url(#clip_body)"
             d="m 68.67,115.18 c 0.87,1.31 -0.55,5.84 19.86,2.94 0,0 -3.59,0.39 -7.12,1.21 -5.49,1.84 -10.27,3.89 -13.97,6.61 -3.65,2.7 -6.33,6.21 -9.68,9.22 0,0 5.43,-9.92 6.78,-12.91 1.36,-2.99 -0.22,-2.85 0.85,-7.25 1.07,-4.4 3.69,-8.63 3.69,-8.63 0,0 -2.14,6.22 -0.41,8.81 z"
             style="fill:url(#fill_belly_shadow_left)" /><path
             id="belly_shadow_right"
             opacity="0.42"
             fill="url(#fill_belly_shadow_right)"
             filter="url(#blur_belly_shadow_right)"
             clip-path="url(#clip_body)"
             d="m 134.28,113.99 c -4.16,2.9 -6.6,2.56 -11.64,3.12 -5.05,0.57 -18.7,0.36 -18.7,0.36 0,0 1.97,-0.03 6.36,0.78 4.38,0.82 13.31,1.6 18.34,3.51 5.04,1.92 6.87,2.47 9.93,4.4 4.35,2.75 7.55,7.06 11.71,10.08 0,0 0.2,-4 -1.48,-6.99 -1.68,-2.99 -6.2,-7.7 -7.53,-12.1 -1.32,-4.4 -1.96,-13.04 -1.96,-13.04 0,0 -0.88,6.99 -5.03,9.88 z"
             style="fill:url(#fill_belly_shadow_right)" /><path
             id="belly_shadow_middle"
             opacity="0.2"
             fill="url(#fill_belly_shadow_middle)"
             filter="url(#blur_belly_shadow_middle)"
             clip-path="url(#clip_body)"
             d="m 95.17,107.81 c -0.16,1.25 -0.36,2.5 -0.6,3.74 -0.12,0.61 -0.26,1.22 -0.48,1.8 -0.23,0.58 -0.56,1.14 -1.02,1.55 -0.41,0.37 -0.9,0.62 -1.4,0.85 -1.94,0.88 -4.01,1.47 -6.12,1.74 0.84,0.06 1.68,0.14 2.53,0.23 0.53,0.06 1.06,0.12 1.57,0.25 0.52,0.14 1.03,0.34 1.46,0.65 0.47,0.35 0.84,0.82 1.12,1.34 0.55,1.02 0.73,2.2 0.83,3.37 0.13,1.48 0.14,2.98 0.03,4.46 0.1,-0.99 0.31,-1.98 0.62,-2.92 0.57,-1.72 1.47,-3.32 2.69,-4.65 0.49,-0.52 1.02,-1.01 1.6,-1.42 1.79,-1.26 4.07,-1.81 6.24,-1.51 -2.21,0.09 -4.44,-0.6 -6.2,-1.93 -0.9,-0.68 -1.68,-1.52 -2.22,-2.5 -0.84,-1.52 -1.08,-3.37 -0.65,-5.05 z"
             style="fill:url(#fill_belly_shadow_middle)" /><path
             id="belly_shadow_lower"
             opacity="0.11"
             fill="#000000"
             filter="url(#blur_belly_shadow_lower)"
             clip-path="url(#clip_body)"
             d="m 89.85,137.14 c -1.06,4.03 -1.79,8.15 -2.17,12.31 -0.55,5.87 -0.42,11.78 -0.74,17.67 -0.26,4.99 -0.85,10.04 0.02,14.97 0.41,2.35 1.15,4.64 2.2,6.78 0.16,-0.82 0.29,-1.64 0.36,-2.47 0.37,-4 -0.3,-8.01 -0.53,-12.01 -0.4,-7.02 0.57,-14.04 0.97,-21.06 0.3,-5.39 0.27,-10.8 -0.11,-16.19 z" /></g><g
           id="body_glare"><path
             id="belly_glare"
             opacity="0.75"
             fill="#7c7c7c"
             filter="url(#blur_belly_glare)"
             clip-path="url(#clip_body)"
             d="m 160.08,131.23 c 1.03,-0.16 7.34,5.21 6.48,7.21 -0.86,1.99 -2.49,0.79 -3.65,0.8 -1.16,0.02 -4.33,1.46 -4.86,0.55 -0.54,-0.91 1.4,-3.03 2.41,-4.81 0.82,-1.43 -1.4,-3.59 -0.38,-3.75 z" /><path
             id="head_glare"
             fill="#7c7c7c"
             filter="url(#blur_head_glare)"
             clip-path="url(#clip_body)"
             d="m 121.52,11.12 c -2.21,1.56 -1.25,3.51 -0.3,5.46 0.95,1.96 -2.09,7.59 -2.12,7.83 -0.03,0.24 5.98,-2.85 7.62,-4.87 1.94,-2.37 6.83,3.22 6.56,2.37 0.01,-1.52 -9.55,-12.34 -11.76,-10.79 z" /><path
             id="neck_glare"
             fill="#838384"
             filter="url(#blur_neck_glare)"
             clip-path="url(#clip_body)"
             d="m 138.27,76.63 c -1.86,1.7 0.88,4.25 2.17,7.24 0.81,1.86 3.04,4.49 5.2,4.07 1.63,-0.32 2.63,-2.66 2.48,-4.3 -0.3,-3.18 -2.98,-3.93 -4.93,-5.02 -1.54,-0.86 -3.61,-3.18 -4.92,-1.99 z" /></g></g><g
         id="wings"><g
           id="wing_left"><path
             id="wing_left_base"
             fill="#020204"
             d="m 63.98,100.91 c -6.1,6.92 -12.37,13.63 -15.81,21.12 -1.71,3.8 -2.51,7.93 -3.68,11.93 -1.32,4.54 -3.12,8.94 -5.14,13.22 -1.87,3.95 -3.93,7.81 -5.98,11.66 -1.5,2.81 -3.02,5.67 -3.54,8.81 -0.41,2.48 -0.18,5.04 0.46,7.47 0.63,2.43 1.64,4.75 2.79,6.98 4.88,9.55 12.21,17.77 20.89,24.07 3.94,2.85 8.15,5.32 12.58,7.35 2.4,1.09 4.92,2.07 7.56,2.11 1.32,0.03 2.65,-0.19 3.86,-0.72 1.2,-0.53 2.28,-1.38 3,-2.49 0.88,-1.36 1.18,-3.05 1,-4.66 -0.18,-1.61 -0.81,-3.15 -1.65,-4.53 -2.06,-3.38 -5.31,-5.83 -8.44,-8.25 -6.76,-5.23 -13.29,-10.76 -19.55,-16.58 -1.76,-1.65 -3.53,-3.34 -4.76,-5.42 -1.2,-2.02 -1.85,-4.32 -2.29,-6.63 -1.21,-6.33 -0.9,-12.99 1.25,-19.07 0.85,-2.38 1.96,-4.65 3.04,-6.93 1.86,-3.95 3.62,-7.98 6.07,-11.6 3.05,-4.51 7.13,-8.33 9.61,-13.17 2.1,-4.09 2.95,-8.68 3.76,-13.2 0.64,-3.54 1.85,-7 2.47,-10.54 -1.21,2.3 -5.11,6.07 -7.5,9.07 z" /><path
             id="wing_left_glare"
             opacity="0.95"
             fill="#7c7c7c"
             filter="url(#blur_wing_left_glare)"
             clip-path="url(#clip_wing_left)"
             d="m 56.96,126.1 c -2,1.84 -3.73,3.97 -5.13,6.31 -2.3,3.84 -3.65,8.16 -5.33,12.31 -1.24,3.09 -2.69,6.2 -2.86,9.53 -0.09,1.71 0.16,3.42 0.22,5.13 0.06,1.71 -0.1,3.49 -0.94,4.98 -0.7,1.25 -1.87,2.23 -3.22,2.71 1.83,0.61 3.45,1.79 4.6,3.33 0.96,1.3 1.58,2.81 2.41,4.18 0.68,1.12 1.51,2.16 2.54,2.97 1.02,0.82 2.25,1.4 3.54,1.56 1.79,0.23 3.65,-0.36 4.97,-1.58 -1.66,-15.55 -0.14,-31.42 4.44,-46.37 0.29,-0.94 0.59,-1.89 0.67,-2.87 0.07,-0.99 -0.12,-2.03 -0.72,-2.81 -0.31,-0.42 -0.74,-0.75 -1.23,-0.96 -0.48,-0.2 -1.02,-0.28 -1.54,-0.21 -0.52,0.06 -1.03,0.26 -1.45,0.57 -0.42,0.32 -0.76,0.74 -0.97,1.22 z" /></g><g
           id="wing_right"><path
             id="wing_right_base"
             fill="#020204"
             d="m 162.76,127.12 c 5.24,4.22 8.57,10.59 9.6,17.24 0.8,5.18 0.28,10.51 -0.89,15.62 -1.17,5.12 -2.97,10.06 -4.77,15 -0.71,1.96 -1.43,3.95 -1.71,6.02 -0.29,2.08 -0.11,4.27 0.89,6.11 1.15,2.11 3.29,3.56 5.59,4.24 2.27,0.68 4.72,0.66 7.02,0.09 2.3,-0.57 6.17,-1.31 8.04,-2.77 4.75,-3.69 5.88,-10.1 7.01,-15.72 1.17,-5.87 0.6,-12.02 -0.43,-17.95 -1.41,-8.09 -3.78,-15.99 -6.79,-23.62 -2.22,-5.62 -5.06,-10.98 -8.44,-15.96 -3.32,-4.89 -8.02,-8.7 -11.5,-13.48 -1.21,-1.66 -2.66,-3.38 -3.84,-5.06 -2.56,-3.62 -1.98,-2.94 -3.57,-5.29 -1.15,-1.7 -2.97,-2.28 -4.88,-3.02 -1.92,-0.74 -4.06,-0.96 -6.04,-0.41 -2.6,0.73 -4.73,2.79 -5.86,5.24 -1.13,2.46 -1.33,5.28 -0.89,7.95 0.57,3.44 2.14,6.64 3.92,9.64 2,3.39 4.32,6.66 7.35,9.18 3.16,2.63 6.98,4.37 10.19,6.95 z" /><path
             id="wing_right_glare"
             fill="#838384"
             filter="url(#blur_wing_right_glare)"
             clip-path="url(#clip_wing_right)"
             d="m 150.42,118.99 c 0.42,0.4 0.86,0.81 1.31,1.19 3.22,2.63 4.93,5.58 8.2,8.16 5.34,4.22 10.75,11.5 11.8,18.15 0.82,5.19 -0.26,8.01 -1.58,14.12 -1.32,6.12 -5.06,14.78 -7.09,20.68 -0.8,2.35 1.64,1.38 1.32,3.86 -0.16,1.22 -0.18,2.45 -0.03,3.67 0.02,-0.23 0.03,-0.48 0.06,-0.71 0.39,-3.38 1.42,-6.63 2.55,-9.82 2.17,-6.13 4.66,-12.15 6.38,-18.45 1.72,-6.29 1.53,-10.82 0.63,-16.23 -1.13,-6.81 -5.09,-13.09 -10.69,-17.24 -3.97,-2.93 -8.64,-4.81 -12.86,-7.38 z" /></g></g><g
         id="feet"><g
           id="foot_left"><path
             id="foot_left_base"
             fill="url(#fill_foot_left_base)"
             d="m 34.98,175.33 c 1.38,-0.57 2.93,-0.68 4.39,-0.41 1.47,0.27 2.86,0.91 4.09,1.74 2.47,1.68 4.3,4.12 6.05,6.54 4.03,5.54 7.9,11.2 11.42,17.08 2.85,4.78 5.46,9.71 8.76,14.18 2.15,2.93 4.57,5.64 6.73,8.55 2.16,2.92 4.07,6.08 5.03,9.58 1.25,4.55 0.76,9.56 -1.4,13.75 -1.52,2.95 -3.86,5.48 -6.7,7.19 -2.84,1.71 -5.83,2.47 -9.15,2.47 -5.27,0 -10.42,-2.83 -15.32,-4.78 C 38.9,247.24 28.06,246 17.77,242.9 14.61,241.95 11.5,240.82 8.32,239.95 6.9,239.56 5.47,239.22 4.13,238.61 2.79,238.01 1.54,237.1 0.8,235.84 0.23,234.86 0,233.71 0,232.58 c 0,-1.14 0.28,-2.26 0.67,-3.32 0.77,-2.13 2.02,-4.06 2.86,-6.17 1.37,-3.44 1.62,-7.23 1.43,-10.93 -0.18,-3.69 -0.78,-7.36 -1.03,-11.05 -0.12,-1.65 -0.16,-3.32 0.16,-4.95 0.31,-1.62 1.01,-3.21 2.2,-4.35 1.1,-1.06 2.55,-1.69 4.05,-2 1.49,-0.31 3.03,-0.32 4.55,-0.29 1.52,0.03 3.05,0.12 4.57,-0.01 1.52,-0.12 3.05,-0.46 4.37,-1.22 1.26,-0.72 2.29,-1.79 3.14,-2.96 0.85,-1.17 1.54,-2.45 2.25,-3.72 0.7,-1.26 1.43,-2.52 2.36,-3.64 0.92,-1.12 2.06,-2.09 3.4,-2.64 z"
             style="fill:url(#fill_foot_left_base)" /><path
             id="foot_left_layer_1"
             fill="#d99a03"
             filter="url(#blur_foot_left_layer_1)"
             clip-path="url(#clip_foot_left)"
             d="m 37.16,177.7 c 1.25,-0.5 2.67,-0.56 3.98,-0.26 1.32,0.3 2.55,0.94 3.61,1.77 2.14,1.65 3.62,3.97 5.05,6.26 3.42,5.54 6.76,11.15 9.92,16.86 2.4,4.31 4.68,8.7 7.62,12.65 1.95,2.62 4.18,5.03 6.17,7.62 1.99,2.59 3.76,5.41 4.64,8.56 1.14,4.05 0.68,8.54 -1.28,12.26 -1.42,2.68 -3.58,4.96 -6.2,6.48 -2.61,1.52 -5.67,2.28 -8.69,2.14 -4.82,-0.22 -9.23,-2.63 -13.77,-4.26 -8.71,-3.16 -18.14,-3.59 -27.08,-6.05 -3.2,-0.87 -6.32,-2.03 -9.53,-2.84 -1.43,-0.36 -2.88,-0.66 -4.23,-1.23 -1.35,-0.57 -2.62,-1.45 -3.36,-2.72 -0.54,-0.95 -0.76,-2.06 -0.73,-3.15 0.04,-1.09 0.31,-2.17 0.7,-3.19 0.78,-2.04 2,-3.88 2.78,-5.92 1.19,-3.08 1.34,-6.47 1.12,-9.76 -0.22,-3.29 -0.8,-6.56 -1,-9.85 -0.08,-1.48 -0.1,-2.97 0.2,-4.41 0.3,-1.45 0.93,-2.85 1.98,-3.89 1.14,-1.13 2.7,-1.74 4.29,-1.99 1.58,-0.24 3.19,-0.13 4.78,0.01 1.6,0.14 3.2,0.32 4.8,0.23 1.6,-0.1 3.22,-0.49 4.54,-1.39 1.2,-0.81 2.1,-2 2.79,-3.27 0.69,-1.27 1.18,-2.64 1.71,-3.98 0.52,-1.35 1.09,-2.69 1.91,-3.89 0.82,-1.19 1.93,-2.24 3.28,-2.79 z" /><path
             id="foot_left_layer_2"
             fill="#f5bd0c"
             filter="url(#blur_foot_left_layer_2)"
             clip-path="url(#clip_foot_left)"
             d="m 35.99,174.57 c 1.22,-0.6 2.65,-0.72 3.98,-0.45 1.33,0.27 2.57,0.92 3.62,1.77 2.09,1.7 3.43,4.13 4.67,6.51 2.84,5.46 5.5,11.04 8.9,16.19 2.48,3.73 5.33,7.2 7.83,10.92 3.39,5.03 6.15,10.57 7.29,16.5 0.76,4 0.74,8.31 -1.18,11.9 -1.27,2.37 -3.32,4.31 -5.75,5.52 -2.42,1.22 -5.21,1.71 -7.92,1.47 -4.27,-0.37 -8.14,-2.47 -12.16,-3.94 -7.13,-2.59 -14.84,-3.22 -22.18,-5.18 -3.09,-0.82 -6.13,-1.89 -9.26,-2.54 -1.39,-0.29 -2.8,-0.5 -4.12,-1 -1.32,-0.5 -2.57,-1.33 -3.25,-2.55 -0.47,-0.86 -0.63,-1.86 -0.56,-2.84 0.07,-0.97 0.36,-1.92 0.74,-2.83 0.77,-1.8 1.9,-3.46 2.49,-5.32 0.88,-2.75 0.52,-5.72 -0.14,-8.53 -0.65,-2.8 -1.6,-5.55 -1.89,-8.41 -0.13,-1.27 -0.13,-2.57 0.17,-3.82 0.29,-1.25 0.88,-2.45 1.81,-3.34 1.2,-1.15 2.88,-1.73 4.56,-1.89 1.67,-0.16 3.35,0.06 5.01,0.3 1.66,0.24 3.34,0.5 5.01,0.42 1.68,-0.07 3.39,-0.51 4.7,-1.54 1.3,-1.02 2.12,-2.53 2.59,-4.09 0.47,-1.57 0.62,-3.2 0.81,-4.82 0.19,-1.62 0.43,-3.26 1.06,-4.77 0.63,-1.51 1.69,-2.9 3.17,-3.64 z" /><path
             id="foot_left_glare"
             fill="url(#fill_foot_left_glare)"
             filter="url(#blur_foot_left_glare)"
             clip-path="url(#clip_foot_left)"
             d="m 51.2,188.21 c 2.25,4.06 3.62,8.72 5.85,12.82 2.05,3.77 4.38,7.65 6.46,11.12 0.93,1.55 3.09,3.93 5.27,7.62 1.98,3.34 3.98,8.01 5.1,9.58 -0.64,-1.84 -1.96,-6.77 -3.54,-10.28 -1.47,-3.28 -3.19,-5.15 -4.24,-6.92 -2.08,-3.47 -4.33,-6.6 -6.47,-9.91 -2.95,-4.57 -5.2,-9.68 -8.43,-14.03 z"
             style="fill:url(#fill_foot_left_glare)" /></g><g
           id="foot_right"><path
             id="foot_right_shadow"
             opacity="0.2"
             fill="url(#fill_foot_right_shadow)"
             filter="url(#blur_foot_right_shadow)"
             clip-path="url(#clip_body)"
             d="m 198.7,215.61 c -0.4,1.33 -1.02,2.62 -1.81,3.8 -1.75,2.59 -4.3,4.55 -6.84,6.35 -4.33,3.07 -8.85,5.89 -12.89,9.38 -2.7,2.34 -5.17,4.97 -7.45,7.73 -1.95,2.36 -3.79,4.84 -6.02,6.94 -2.25,2.12 -4.89,3.84 -7.74,4.77 -3.47,1.13 -7.13,1.08 -10.47,0.22 -2.34,-0.6 -4.63,-1.64 -6.08,-3.53 -1.45,-1.89 -1.92,-4.44 -2.09,-6.94 -0.3,-4.42 0.23,-8.93 0.71,-13.42 0.4,-3.73 0.77,-7.46 0.92,-11.18 0.27,-6.77 -0.18,-13.47 -1.09,-20.05 -0.16,-1.11 -0.32,-2.22 -0.23,-3.35 0.09,-1.14 0.47,-2.32 1.27,-3.2 0.74,-0.81 1.77,-1.29 2.79,-1.52 1.02,-0.24 2.06,-0.25 3.09,-0.28 2.43,-0.06 4.86,-0.21 7.25,0.01 1.51,0.13 2.99,0.41 4.49,0.55 2.51,0.24 5.12,0.12 7.64,-0.62 2.71,-0.8 5.29,-2.29 8.05,-2.7 1.13,-0.17 2.26,-0.15 3.36,0.01 1.12,0.15 2.24,0.46 3.1,1.15 0.66,0.52 1.14,1.23 1.51,1.99 0.56,1.14 0.9,2.39 1.1,3.68 0.17,1.14 0.24,2.31 0.53,3.41 0.48,1.81 1.58,3.35 2.89,4.6 1.32,1.25 2.85,2.24 4.39,3.22 1.53,0.97 3.07,1.93 4.7,2.73 0.77,0.38 1.56,0.72 2.29,1.15 0.74,0.44 1.42,0.97 1.91,1.67 0.66,0.95 0.92,2.2 0.72,3.43 z"
             style="fill:url(#fill_foot_right_shadow)" /><path
             id="foot_right_base"
             fill="url(#fill_foot_right_base)"
             d="m 213.47,222.92 c -2.26,2.68 -5.4,4.45 -8.53,6.05 -5.33,2.71 -10.86,5.1 -15.87,8.37 -3.36,2.19 -6.46,4.76 -9.36,7.53 -2.48,2.37 -4.83,4.9 -7.61,6.91 -2.81,2.03 -6.05,3.5 -9.48,4.01 -0.95,0.14 -1.9,0.21 -2.86,0.21 -3.24,0 -6.48,-0.78 -9.46,-2.08 -2.7,-1.17 -5.3,-2.86 -6.86,-5.36 -1.56,-2.52 -1.92,-5.59 -1.92,-8.56 -0.01,-5.23 0.96,-10.41 1.87,-15.57 0.76,-4.29 1.48,-8.58 1.95,-12.91 0.85,-7.86 0.84,-15.81 0.28,-23.71 -0.1,-1.32 -0.21,-2.65 -0.01,-3.96 0.2,-1.31 0.74,-2.62 1.74,-3.48 0.93,-0.8 2.17,-1.16 3.4,-1.22 1.22,-0.07 2.44,0.12 3.65,0.3 2.85,0.42 5.73,0.74 8.52,1.48 1.76,0.46 3.48,1.08 5.23,1.56 2.94,0.79 6.01,1.17 9.02,0.82 3.25,-0.38 6.41,-1.6 9.68,-1.52 1.34,0.03 2.67,0.28 3.95,0.69 1.3,0.41 2.59,1 3.55,1.98 0.73,0.74 1.24,1.67 1.62,2.64 0.57,1.44 0.88,2.98 1.01,4.52 0.11,1.37 0.09,2.76 0.35,4.11 0.43,2.21 1.6,4.24 3.04,5.97 1.45,1.74 3.18,3.21 4.91,4.66 1.73,1.45 3.46,2.89 5.32,4.16 0.87,0.6 1.77,1.16 2.6,1.81 0.83,0.66 1.59,1.42 2.11,2.34 0.45,0.81 0.69,1.72 0.69,2.65 0,0.52 -0.07,1.04 -0.23,1.56 -0.45,1.43 -1.28,2.82 -2.3,4.04 z"
             style="fill:url(#fill_foot_right_base)" /><path
             id="foot_right_layer_1"
             fill="#cd8907"
             filter="url(#blur_foot_right_layer_1)"
             clip-path="url(#clip_foot_right)"
             d="m 213.21,216.12 c -0.53,1.33 -1.28,2.58 -2.22,3.67 -2.07,2.42 -4.93,4.01 -7.78,5.44 -4.88,2.44 -9.92,4.58 -14.5,7.52 -3.06,1.97 -5.9,4.28 -8.55,6.78 -2.26,2.13 -4.41,4.41 -6.95,6.21 -2.57,1.83 -5.53,3.14 -8.65,3.6 -3.8,0.56 -7.72,-0.16 -11.25,-1.67 -2.46,-1.06 -4.84,-2.56 -6.27,-4.83 -1.42,-2.26 -1.75,-5.02 -1.75,-7.69 -0.02,-4.71 0.87,-9.37 1.71,-14 0.7,-3.85 1.36,-7.71 1.78,-11.6 0.76,-7.08 0.73,-14.22 0.25,-21.32 -0.08,-1.19 -0.17,-2.39 0.01,-3.57 0.18,-1.18 0.67,-2.35 1.57,-3.13 0.85,-0.73 1.99,-1.05 3.11,-1.1 1.11,-0.06 2.22,0.12 3.33,0.28 2.61,0.38 5.23,0.67 7.78,1.33 1.61,0.42 3.18,0.98 4.78,1.4 2.68,0.72 5.49,1.06 8.24,0.74 2.97,-0.34 5.85,-1.44 8.83,-1.37 1.23,0.03 2.44,0.26 3.61,0.62 1.19,0.37 2.37,0.9 3.25,1.78 0.66,0.67 1.11,1.51 1.48,2.38 0.53,1.29 0.89,2.67 0.91,4.07 0.03,1.46 -0.28,2.92 -0.09,4.37 0.16,1.17 0.66,2.28 1.3,3.28 0.63,1 1.4,1.91 2.17,2.81 1.48,1.75 2.96,3.53 4.82,4.87 2.11,1.53 4.62,2.43 6.8,3.85 0.65,0.43 1.28,0.91 1.74,1.54 0.78,1.06 0.98,2.5 0.54,3.74 z" /><path
             id="foot_right_layer_2"
             fill="#f5c021"
             filter="url(#blur_foot_right_layer_2)"
             clip-path="url(#clip_foot_right)"
             d="m 212.91,214.61 c -0.6,1.35 -1.37,2.6 -2.28,3.71 -2.12,2.58 -4.99,4.35 -8,5.49 -4.97,1.88 -10.39,2.13 -15.26,4.27 -2.97,1.3 -5.65,3.26 -8.36,5.12 -2.18,1.49 -4.42,2.94 -6.82,3.98 -2.72,1.19 -5.6,1.85 -8.5,2.32 -1.84,0.29 -3.71,0.51 -5.57,0.41 -1.86,-0.1 -3.72,-0.54 -5.37,-1.49 -1.24,-0.72 -2.36,-1.75 -3.03,-3.1 -0.73,-1.49 -0.86,-3.24 -0.85,-4.94 0.05,-4.5 1.02,-8.96 0.99,-13.47 -0.03,-3.93 -0.81,-7.8 -1.03,-11.72 -0.43,-7.54 1.19,-15.2 -0.24,-22.59 -0.22,-1.19 -0.53,-2.37 -0.52,-3.58 0.01,-0.6 0.1,-1.21 0.31,-1.77 0.22,-0.55 0.56,-1.06 1.01,-1.42 0.39,-0.29 0.84,-0.47 1.31,-0.56 0.46,-0.08 0.94,-0.06 1.41,0.01 0.93,0.15 1.82,0.51 2.73,0.78 2.6,0.78 5.35,0.76 8,1.35 1.66,0.36 3.26,0.97 4.91,1.41 2.75,0.76 5.63,1.08 8.46,0.75 3.04,-0.36 6.01,-1.46 9.07,-1.38 1.26,0.03 2.5,0.26 3.71,0.62 1.21,0.36 2.42,0.87 3.34,1.8 0.65,0.67 1.13,1.52 1.51,2.4 0.57,1.29 0.96,2.69 0.95,4.11 -0.01,0.74 -0.12,1.47 -0.19,2.21 -0.06,0.74 -0.08,1.49 0.09,2.2 0.18,0.72 0.55,1.37 0.97,1.96 0.42,0.59 0.9,1.12 1.34,1.7 1.22,1.61 2.1,3.49 3.05,5.3 0.95,1.81 2.02,3.6 3.53,4.91 2.05,1.77 4.7,2.48 6.99,3.89 0.67,0.41 1.31,0.89 1.78,1.55 0.38,0.52 0.63,1.15 0.73,1.81 0.09,0.65 0.03,1.34 -0.17,1.96 z" /><path
             id="foot_right_glare"
             fill="url(#fill_foot_right_glare)"
             filter="url(#blur_foot_right_glare)"
             clip-path="url(#clip_foot_right)"
             d="m 148.08,181.58 c 2.82,-0.76 5.22,1.38 7.27,2.99 1.32,1.13 3.24,0.85 4.86,0.9 2.69,-0.09 5.36,0.45 8.05,0.12 5.3,-0.45 10.49,-1.75 15.81,-1.97 2.54,-0.16 5.4,-0.31 7.59,1.17 0.89,0.62 2.2,3.23 3.07,2.25 -0.36,-2.74 -2.39,-5.39 -5.11,-6.12 -2.14,-0.34 -4.3,0.25 -6.46,0.06 -6.39,-0.15 -12.75,-1.34 -19.16,-1 -4.46,0.04 -8.91,-0.17 -13.37,-0.34 -1.75,-0.36 -2.37,1.19 -3.32,1.79 0.25,0.19 0.34,0.25 0.77,0.15 z"
             style="fill:url(#fill_foot_right_glare)" /></g></g><g
         id="wing_tip_right"><g
           id="wing_tip_right_shadow"><path
             id="wing_tip_right_shadow_lower"
             opacity="0.35"
             fill="url(#fill_wing_tip_right_shadow_lower)"
             filter="url(#blur_wing_tip_right_shadow_lower)"
             clip-path="url(#clip_foot_right)"
             d="m 185.49,187.61 c -0.48,-0.95 -1.36,-1.66 -2.35,-2.07 -0.98,-0.41 -2.06,-0.55 -3.13,-0.54 -2.13,0.02 -4.25,0.57 -6.38,0.39 -1.79,-0.16 -3.49,-0.83 -5.24,-1.26 -1.81,-0.44 -3.73,-0.61 -5.52,-0.12 -1.92,0.52 -3.61,1.81 -4.67,3.49 -0.94,1.48 -1.38,3.23 -1.52,4.98 -0.14,1.75 0.01,3.5 0.19,5.25 0.12,1.26 0.27,2.52 0.57,3.75 0.31,1.23 0.78,2.43 1.52,3.46 1.07,1.48 2.66,2.54 4.37,3.17 2.8,1.03 5.98,0.98 8.73,-0.15 4.88,-2.12 9.01,-5.92 11.52,-10.6 0.91,-1.68 1.61,-3.47 2.06,-5.31 0.18,-0.74 0.32,-1.49 0.32,-2.25 0.01,-0.75 -0.12,-1.52 -0.47,-2.19 z"
             style="fill:url(#fill_wing_tip_right_shadow_lower)" /><path
             id="wing_tip_right_shadow_upper"
             opacity="0.35"
             fill="url(#fill_wing_tip_right_shadow_upper)"
             filter="url(#blur_wing_tip_right_shadow_upper)"
             clip-path="url(#clip_foot_right)"
             d="m 185.49,184.89 c -0.48,-0.69 -1.36,-1.2 -2.35,-1.5 -0.98,-0.3 -2.06,-0.39 -3.13,-0.39 -2.13,0.02 -4.25,0.42 -6.38,0.28 -1.79,-0.11 -3.49,-0.6 -5.24,-0.9 -1.81,-0.32 -3.73,-0.45 -5.52,-0.09 -1.92,0.37 -3.61,1.3 -4.67,2.52 -0.94,1.07 -1.38,2.34 -1.52,3.6 -0.14,1.26 0.01,2.53 0.19,3.79 0.12,0.91 0.27,1.83 0.57,2.72 0.31,0.89 0.78,1.76 1.52,2.5 1.07,1.07 2.66,1.83 4.37,2.29 2.8,0.75 5.98,0.71 8.73,-0.11 4.88,-1.53 9.01,-4.28 11.52,-7.66 0.91,-1.22 1.61,-2.51 2.06,-3.84 0.18,-0.54 0.32,-1.08 0.32,-1.62 0.01,-0.55 -0.12,-1.11 -0.47,-1.59 z"
             style="fill:url(#fill_wing_tip_right_shadow_upper)" /></g><path
           id="wing_tip_right_base"
           fill="#020204"
           d="m 189.55,178.72 c -0.35,-0.95 -0.97,-1.79 -1.72,-2.47 -0.75,-0.68 -1.64,-1.2 -2.57,-1.6 -1.86,-0.79 -3.89,-1.09 -5.89,-1.46 -1.87,-0.35 -3.74,-0.78 -5.62,-1.1 -1.96,-0.33 -3.98,-0.55 -5.92,-0.11 -1.69,0.38 -3.26,1.26 -4.54,2.43 -1.28,1.17 -2.28,2.63 -3,4.21 -1.27,2.79 -1.67,5.92 -1.43,8.97 0.18,2.27 0.76,4.61 2.25,6.32 1.21,1.39 2.92,2.26 4.68,2.78 3.04,0.9 6.35,0.85 9.36,-0.13 4.97,-1.67 9.37,-4.98 12.35,-9.29 0.98,-1.43 1.82,-2.98 2.2,-4.66 0.29,-1.28 0.3,-2.66 -0.15,-3.89 z" /><g
           id="wing_tip_right_glare"><defs
             id="defs765"><path
               id="path1036"
               d="m 168.89,171.07 c -0.47,0.03 -0.93,0.08 -1.4,0.17 -2.99,0.53 -5.73,2.42 -7.27,5.03 -1.09,1.85 -1.58,4.03 -1.43,6.17 0.07,-1.5 0.46,-2.97 1.19,-4.28 1.23,-2.23 3.47,-3.91 5.98,-4.37 1.54,-0.28 3.13,-0.11 4.68,0.08 1.5,0.19 3,0.39 4.47,0.7 2.28,0.5 4.53,1.26 6.44,2.59 0.44,0.31 0.86,0.66 1.21,1.08 0.35,0.41 0.62,0.89 0.73,1.42 0.15,0.78 -0.07,1.6 -0.46,2.29 -0.39,0.7 -0.92,1.3 -1.48,1.86 -0.46,0.46 -0.94,0.89 -1.43,1.32 2.21,-0.43 4.44,-1.03 6.28,-2.31 0.77,-0.55 1.48,-1.2 1.94,-2.02 0.46,-0.83 0.65,-1.83 0.43,-2.75 -0.16,-0.62 -0.5,-1.19 -0.92,-1.67 -0.42,-0.48 -0.93,-0.87 -1.45,-1.24 -2.31,-1.62 -5.01,-2.65 -7.81,-2.99 -1.8,-0.33 -3.61,-0.61 -5.42,-0.83 -1.41,-0.18 -2.86,-0.33 -4.28,-0.25 z" /></defs><use
             id="wing_tip_right_glare_1"
             href="#path_wing_tip_right_glare"
             xlink:href="#path_wing_tip_right_glare"
             fill="url(#fill_wing_tip_right_glare_1)"
             filter="url(#blur_wing_tip_right_glare)"
             clip-path="url(#clip_wing_tip_right)"
             style="fill:url(#fill_wing_tip_right_glare_1)" /><use
             id="wing_tip_right_glare_2"
             href="#path_wing_tip_right_glare"
             xlink:href="#path_wing_tip_right_glare"
             fill="url(#fill_wing_tip_right_glare_2)"
             filter="url(#blur_wing_tip_right_glare)"
             clip-path="url(#clip_wing_tip_right)"
             style="fill:url(#fill_wing_tip_right_glare_2)" /></g></g><g
         id="face"><g
           id="eyes"><g
             id="eye_left"><path
               id="eyeball_left"
               fill="url(#fill_eyeball_left)"
               d="m 84.45,38.28 c -1.53,0.08 -3,0.79 -4.12,1.84 -1.13,1.05 -1.92,2.43 -2.41,3.88 -0.97,2.92 -0.75,6.08 -0.53,9.15 0.2,2.77 0.41,5.6 1.45,8.18 0.52,1.3 1.25,2.51 2.22,3.51 0.97,0.99 2.2,1.76 3.55,2.09 1.26,0.32 2.62,0.26 3.86,-0.13 1.25,-0.4 2.38,-1.11 3.32,-2.02 1.36,-1.33 2.27,-3.07 2.8,-4.9 0.53,-1.83 0.68,-3.75 0.65,-5.66 -0.04,-2.38 -0.35,-4.77 -1.09,-7.03 -0.75,-2.26 -1.94,-4.4 -3.6,-6.11 -0.8,-0.83 -1.72,-1.55 -2.75,-2.06 -1.04,-0.51 -2.2,-0.8 -3.35,-0.74 z"
               style="fill:url(#fill_eyeball_left)" /><g
               id="pupil_left"><path
                 id="pupil_left_base"
                 fill="#020204"
                 d="m 80.75,50.99 c -0.32,1.94 -0.33,3.97 0.33,5.81 0.44,1.22 1.17,2.33 2.05,3.28 0.57,0.62 1.23,1.18 1.99,1.55 0.77,0.37 1.65,0.52 2.48,0.32 0.76,-0.19 1.42,-0.68 1.91,-1.29 0.49,-0.61 0.82,-1.34 1.05,-2.09 0.69,-2.21 0.58,-4.62 -0.11,-6.83 -0.49,-1.61 -1.32,-3.16 -2.6,-4.24 -0.62,-0.52 -1.34,-0.93 -2.12,-1.11 -0.78,-0.19 -1.63,-0.14 -2.36,0.19 -0.81,0.37 -1.44,1.07 -1.85,1.86 -0.41,0.79 -0.62,1.67 -0.77,2.55 z" /><path
                 id="pupil_left_glare"
                 fill="url(#fill_pupil_left_glare)"
                 filter="url(#blur_pupil_left_glare)"
                 clip-path="url(#clip_pupil_left)"
                 d="m 84.84,49.59 c 0.21,0.55 0.91,0.75 1.3,1.19 0.37,0.42 0.76,0.87 0.97,1.4 0.39,1.01 -0.39,2.51 0.43,3.23 0.25,0.22 0.77,0.23 1.02,0 0.99,-0.9 0.77,-2.71 0.38,-3.99 -0.36,-1.15 -1.23,-2.25 -2.31,-2.8 -0.5,-0.26 -1.25,-0.47 -1.68,-0.11 -0.27,0.24 -0.24,0.74 -0.11,1.08 z"
                 style="fill:url(#fill_pupil_left_glare)" /></g><path
               id="eyelid_left"
               fill="url(#fill_eyelid_left)"
               clip-path="url(#clip_eye_left)"
               d="m 81.14,44.46 c 2.32,-1.38 5.13,-1.7 7.82,-1.45 2.68,0.26 5.27,1.04 7.87,1.75 1.91,0.52 3.84,1 5.63,1.84 1.78,0.84 3.44,2.08 4.43,3.8 0.16,0.27 0.29,0.56 0.46,0.83 0.17,0.27 0.37,0.52 0.62,0.71 0.25,0.19 0.57,0.32 0.88,0.3 0.16,-0.01 0.32,-0.05 0.45,-0.13 0.14,-0.08 0.26,-0.2 0.33,-0.34 0.08,-0.16 0.11,-0.35 0.1,-0.53 -0.01,-0.18 -0.05,-0.36 -0.1,-0.54 -0.65,-2.37 -2.19,-4.38 -3.35,-6.55 -0.7,-1.3 -1.28,-2.66 -1.98,-3.96 -2.43,-4.45 -6.42,-7.94 -10.95,-10.21 -4.53,-2.27 -9.59,-3.36 -14.65,-3.65 -5.86,-0.35 -11.73,0.35 -17.51,1.37 -2.51,0.44 -5.06,0.96 -7.27,2.21 -1.11,0.62 -2.13,1.42 -2.92,2.42 -0.8,0.99 -1.36,2.18 -1.55,3.44 -0.17,1.22 0.01,2.47 0.44,3.62 0.42,1.15 1.08,2.2 1.86,3.15 1.54,1.91 3.53,3.39 5.36,5.03 1.83,1.63 3.52,3.44 5.57,4.79 1.02,0.68 2.13,1.24 3.31,1.57 1.18,0.33 2.44,0.42 3.64,0.17 1.24,-0.25 2.4,-0.86 3.41,-1.64 1.01,-0.77 1.88,-1.7 2.71,-2.66 1.66,-1.93 3.21,-4.04 5.39,-5.34 z"
               style="fill:url(#fill_eyelid_left)" /><path
               id="eyebrow_left"
               fill="url(#fill_eyebrow_left)"
               filter="url(#blur_eyebrow_left)"
               d="m 90.77,36.57 c 2.16,2.02 3.76,4.52 4.85,7.16 -0.48,-2.91 -1.23,-5.26 -3.13,-7.16 -1.16,-1.09 -2.49,-2.05 -3.98,-2.72 -1.32,-0.59 -2.77,-0.96 -3.61,-0.97 -0.83,-0.02 -1.03,0 -1.2,0.01 -0.18,0.01 -0.31,0.01 0.23,0.08 0.54,0.06 1.75,0.39 3.05,0.97 1.3,0.58 2.62,1.54 3.79,2.63 z"
               style="fill:url(#fill_eyebrow_left)" /></g><g
             id="eye_right"><path
               id="eyeball_right"
               fill="url(#fill_eyeball_right)"
               d="m 111.61,38.28 c -2.39,1.65 -4.4,3.94 -5.38,6.68 -1.24,3.45 -0.77,7.31 0.43,10.77 1.22,3.55 3.27,6.93 6.36,9.06 1.54,1.07 3.33,1.8 5.19,2.02 1.87,0.22 3.8,-0.09 5.47,-0.95 2.02,-1.06 3.57,-2.91 4.53,-4.98 0.96,-2.08 1.37,-4.37 1.5,-6.66 0.16,-2.9 -0.12,-5.86 -1.08,-8.61 -1.04,-2.99 -2.92,-5.75 -5.58,-7.47 -1.32,-0.86 -2.83,-1.45 -4.4,-1.67 -1.57,-0.22 -3.19,-0.05 -4.67,0.52 -0.84,0.33 -1.62,0.78 -2.37,1.29 z"
               style="fill:url(#fill_eyeball_right)" /><g
               id="pupil_right"><path
                 id="pupil_right_base"
                 fill="#020204"
                 d="m 117.14,45.52 c -0.9,0.06 -1.78,0.37 -2.55,0.85 -0.76,0.48 -1.41,1.13 -1.92,1.88 -1.03,1.49 -1.48,3.31 -1.55,5.12 -0.05,1.35 0.1,2.72 0.55,4 0.45,1.28 1.2,2.47 2.25,3.33 1.07,0.89 2.42,1.42 3.81,1.49 1.39,0.06 2.79,-0.34 3.93,-1.13 0.91,-0.63 1.64,-1.5 2.16,-2.48 0.52,-0.97 0.84,-2.05 0.98,-3.15 0.25,-1.93 -0.03,-3.95 -0.93,-5.69 -0.89,-1.74 -2.41,-3.17 -4.24,-3.84 -0.8,-0.29 -1.65,-0.44 -2.49,-0.38 z" /><path
                 id="pupil_right_glare"
                 fill="url(#fill_pupil_right_glare)"
                 filter="url(#blur_pupil_right_glare)"
                 clip-path="url(#clip_pupil_right)"
                 d="m 122.71,53.36 c 1,-1 -0.71,-3.65 -2.05,-4.74 -0.97,-0.78 -3.78,-1.61 -3.66,-0.75 0.12,0.85 1.39,1.95 2.23,2.79 1.05,1.03 3,3.18 3.48,2.7 z"
                 style="fill:url(#fill_pupil_right_glare)" /></g><path
               id="eyelid_right"
               fill="url(#fill_eyelid_right)"
               clip-path="url(#clip_eye_right)"
               d="m 102.56,47.01 c 2.06,-1.71 4.45,-3.01 7,-3.8 5.25,-1.62 11.2,-0.98 15.84,1.97 1.6,1.01 3.03,2.27 4.52,3.45 1.48,1.17 3.06,2.27 4.85,2.9 0.97,0.34 2,0.54 3.02,0.43 0.92,-0.09 1.81,-0.44 2.57,-0.96 0.76,-0.53 1.4,-1.23 1.88,-2.02 0.96,-1.58 1.27,-3.5 1.1,-5.34 -0.33,-3.69 -2.41,-6.94 -4.15,-10.21 -0.55,-1.02 -1.07,-2.06 -1.73,-3.01 -2.01,-2.93 -5.23,-4.86 -8.6,-5.99 -3.37,-1.13 -6.93,-1.54 -10.46,-1.98 -1.58,-0.2 -3.17,-0.41 -4.74,-0.22 -1.81,0.22 -3.51,0.95 -5.28,1.4 -0.84,0.22 -1.69,0.37 -2.52,0.61 -0.83,0.24 -1.65,0.57 -2.33,1.11 -0.98,0.79 -1.6,1.98 -1.87,3.21 -0.27,1.24 -0.21,2.52 -0.01,3.77 0.39,2.5 1.33,4.93 1.24,7.46 -0.06,1.73 -0.61,3.44 -0.54,5.17 0.02,0.51 0.12,1.55 0.21,2.05 z"
               style="fill:url(#fill_eyelid_right)" /><path
               id="eyebrow_right"
               fill="url(#fill_eyebrow_right)"
               filter="url(#blur_eyebrow_right)"
               d="m 119.93,31.18 c -0.41,0.52 -0.78,1.08 -1.07,1.7 1.85,0.4 3.61,1.16 5.19,2.21 3.06,2.03 5.38,4.99 7.01,8.29 0.38,-0.42 0.72,-0.87 1.02,-1.37 -1.64,-3.44 -4,-6.55 -7.16,-8.65 -1.52,-1 -3.21,-1.77 -4.99,-2.18 z"
               style="fill:url(#fill_eyebrow_right)" /></g></g><g
           id="beak"><g
             id="beak_shadow"><path
               id="beak_shadow_lower"
               fill="#000000"
               fill-opacity="0.258824"
               filter="url(#blur_beak_shadow_lower)"
               clip-path="url(#clip_body)"
               d="m 81.12,89.33 c 1.47,4.26 4.42,7.89 7.92,10.72 1.16,0.95 2.39,1.82 3.76,2.43 1.36,0.62 2.87,0.97 4.36,0.84 1.46,-0.12 2.85,-0.7 4.13,-1.42 1.28,-0.72 2.46,-1.59 3.7,-2.37 2.12,-1.35 4.39,-2.44 6.6,-3.64 2.65,-1.45 5.23,-3.1 7.46,-5.14 1.03,-0.93 1.98,-1.95 3.11,-2.75 1.13,-0.81 2.49,-1.39 3.87,-1.29 1.04,0.07 2.01,0.51 3.03,0.73 0.51,0.11 1.03,0.16 1.55,0.08 0.51,-0.08 1.01,-0.29 1.37,-0.67 0.44,-0.46 0.64,-1.12 0.61,-1.76 -0.02,-0.63 -0.24,-1.25 -0.54,-1.81 -0.59,-1.13 -1.49,-2.1 -1.89,-3.31 -0.36,-1.08 -0.29,-2.24 -0.26,-3.37 0.03,-1.14 0.01,-2.32 -0.51,-3.33 -0.4,-0.76 -1.07,-1.37 -1.83,-1.77 -0.76,-0.41 -1.62,-0.62 -2.48,-0.7 -1.72,-0.16 -3.44,0.18 -5.17,0.27 -2.28,0.13 -4.58,-0.15 -6.87,-0.02 -2.85,0.18 -5.65,1 -8.51,1.01 -3.26,0.01 -6.52,-1.06 -9.74,-0.55 -1.39,0.22 -2.71,0.72 -4.03,1.16 -1.33,0.45 -2.7,0.84 -4.1,0.82 -1.59,-0.03 -3.13,-0.58 -4.72,-0.69 -0.79,-0.06 -1.6,0 -2.35,0.28 -0.74,0.28 -1.41,0.79 -1.78,1.5 -0.21,0.4 -0.31,0.86 -0.33,1.31 -0.02,0.46 0.04,0.91 0.15,1.36 0.22,0.88 0.63,1.71 0.96,2.55 1.2,3.07 1.46,6.42 2.53,9.53 z" /><path
               id="beak_shadow_upper"
               opacity="0.3"
               fill="#000000"
               filter="url(#blur_beak_shadow_upper)"
               clip-path="url(#clip_body)"
               d="m 77.03,77.2 c 2.85,1.76 5.41,3.93 7.56,6.39 1.99,2.29 3.68,4.89 6.29,6.58 1.83,1.2 4.04,1.87 6.28,2.08 2.63,0.24 5.29,-0.15 7.83,-0.84 2.35,-0.63 4.62,-1.53 6.7,-2.71 3.97,-2.25 7.28,-5.55 11.65,-7.03 0.95,-0.33 1.94,-0.56 2.86,-0.96 0.92,-0.39 1.79,-0.99 2.23,-1.83 0.42,-0.82 0.4,-1.75 0.54,-2.64 0.15,-0.96 0.48,-1.88 0.66,-2.83 0.18,-0.95 0.2,-1.96 -0.24,-2.83 -0.37,-0.72 -1.04,-1.29 -1.81,-1.66 -0.77,-0.36 -1.64,-0.52 -2.51,-0.56 -1.72,-0.08 -3.43,0.33 -5.16,0.47 -2.28,0.19 -4.58,-0.08 -6.87,-0.01 -2.85,0.08 -5.66,0.67 -8.51,0.8 -3.25,0.14 -6.49,-0.34 -9.74,-0.44 -1.41,-0.05 -2.83,-0.03 -4.21,0.2 -1.39,0.22 -2.75,0.65 -3.92,1.37 -1.14,0.69 -2.07,1.64 -3.11,2.45 -0.52,0.41 -1.08,0.78 -1.68,1.07 -0.61,0.28 -1.28,0.48 -1.96,0.51 -0.35,0.01 -0.71,-0.01 -1.05,0.04 -0.59,0.08 -1.13,0.39 -1.47,0.83 -0.34,0.45 -0.47,1.02 -0.36,1.55 z" /></g><path
             id="beak_base"
             fill="url(#fill_beak_base)"
             d="m 91.66,58.53 c 1.53,-1.71 2.57,-3.8 4.03,-5.56 0.73,-0.88 1.58,-1.69 2.57,-2.26 0.99,-0.57 2.15,-0.89 3.29,-0.79 1.27,0.11 2.46,0.74 3.39,1.61 0.93,0.87 1.62,1.97 2.17,3.12 0.53,1.11 0.95,2.28 1.71,3.24 0.81,1.02 1.94,1.71 2.97,2.52 0.51,0.4 1.01,0.83 1.41,1.34 0.41,0.51 0.72,1.1 0.86,1.74 0.13,0.65 0.06,1.33 -0.16,1.95 -0.23,0.62 -0.61,1.18 -1.09,1.64 -0.95,0.92 -2.25,1.42 -3.56,1.6 -2.62,0.37 -5.27,-0.41 -7.92,-0.34 -2.67,0.08 -5.29,1.02 -7.97,0.93 -1.33,-0.05 -2.69,-0.38 -3.79,-1.14 -0.55,-0.39 -1.03,-0.88 -1.38,-1.45 -0.34,-0.57 -0.55,-1.23 -0.58,-1.9 -0.02,-0.64 0.13,-1.28 0.39,-1.86 0.25,-0.59 0.61,-1.12 1.01,-1.62 0.81,-0.99 1.8,-1.81 2.65,-2.77 z"
             style="fill:url(#fill_beak_base)" /><g
             id="mandible_lower"><path
               id="mandible_lower_base"
               fill="url(#fill_mandible_lower_base)"
               d="m 77.14,75.05 c 0.06,0.26 0.15,0.5 0.28,0.73 0.23,0.38 0.57,0.69 0.93,0.95 0.36,0.27 0.75,0.49 1.13,0.72 2.01,1.27 3.65,3.04 5.11,4.92 1.95,2.52 3.68,5.31 6.29,7.14 1.84,1.3 4.04,2.03 6.28,2.26 2.63,0.26 5.29,-0.16 7.83,-0.91 2.35,-0.69 4.62,-1.66 6.7,-2.95 3.97,-2.44 7.28,-6.02 11.65,-7.63 0.95,-0.35 1.94,-0.6 2.86,-1.03 0.92,-0.44 1.79,-1.08 2.23,-2 0.42,-0.88 0.4,-1.9 0.54,-2.87 0.15,-1.03 0.48,-2.03 0.66,-3.06 0.18,-1.03 0.2,-2.13 -0.24,-3.08 -0.37,-0.78 -1.04,-1.4 -1.81,-1.79 -0.77,-0.4 -1.64,-0.58 -2.51,-0.62 -1.72,-0.08 -3.43,0.36 -5.16,0.52 -2.28,0.21 -4.58,-0.09 -6.87,-0.02 -2.85,0.09 -5.66,0.73 -8.51,0.87 -3.25,0.15 -6.49,-0.35 -9.74,-0.48 -1.41,-0.06 -2.83,-0.04 -4.22,0.2 -1.39,0.23 -2.75,0.71 -3.91,1.51 -1.13,0.78 -2.03,1.84 -3.07,2.74 -0.52,0.45 -1.08,0.86 -1.7,1.16 -0.61,0.3 -1.29,0.49 -1.98,0.47 -0.35,-0.01 -0.72,-0.06 -1.05,0.04 -0.21,0.07 -0.4,0.2 -0.56,0.35 -0.16,0.16 -0.29,0.34 -0.41,0.52 -0.29,0.42 -0.54,0.87 -0.75,1.34 z"
               style="fill:url(#fill_mandible_lower_base)" /><path
               id="mandible_lower_glare"
               fill="#d9b30d"
               filter="url(#blur_mandible_lower_glare)"
               clip-path="url(#clip_mandible_lower)"
               d="m 89.9,78.56 c -0.33,1.37 -0.13,2.87 0.56,4.11 0.68,1.24 1.84,2.2 3.19,2.65 1.7,0.57 3.62,0.29 5.21,-0.54 0.93,-0.48 1.77,-1.16 2.3,-2.06 0.27,-0.44 0.46,-0.94 0.53,-1.46 0.06,-0.51 0.02,-1.05 -0.16,-1.54 -0.2,-0.53 -0.56,-1 -0.99,-1.37 -0.44,-0.37 -0.95,-0.64 -1.5,-0.82 -1.08,-0.36 -2.77,-0.66 -3.91,-0.68 -2.02,-0.04 -4.9,0.34 -5.23,1.71 z" /></g><g
             id="mandible_upper"><path
               id="mandible_upper_shadow"
               fill="#604405"
               filter="url(#blur_mandible_upper_shadow)"
               clip-path="url(#clip_mandible_lower)"
               d="m 84.31,67.86 c -1.16,0.68 -2.27,1.43 -3.36,2.2 -0.57,0.41 -1.15,0.84 -1.45,1.47 -0.21,0.44 -0.26,0.94 -0.27,1.43 0,0.5 0.03,0.99 -0.04,1.48 -0.04,0.33 -0.13,0.66 -0.14,0.99 -0.01,0.17 0,0.34 0.04,0.5 0.05,0.16 0.13,0.32 0.24,0.44 0.15,0.16 0.35,0.26 0.56,0.32 0.21,0.06 0.42,0.09 0.64,0.14 1.01,0.24 1.89,0.86 2.66,1.56 0.77,0.69 1.47,1.48 2.28,2.13 2.18,1.78 5.07,2.52 7.89,2.56 2.82,0.05 5.61,-0.54 8.36,-1.16 2.16,-0.49 4.32,-0.99 6.39,-1.76 3.2,-1.18 6.16,-2.96 8.72,-5.19 1.17,-1.01 2.26,-2.12 3.57,-2.94 1.15,-0.73 2.44,-1.21 3.62,-1.9 0.11,-0.06 0.21,-0.13 0.3,-0.2 0.1,-0.08 0.18,-0.18 0.24,-0.28 0.09,-0.19 0.09,-0.42 0.03,-0.62 -0.06,-0.2 -0.18,-0.38 -0.31,-0.55 -0.15,-0.18 -0.31,-0.34 -0.49,-0.5 -1.23,-1.05 -2.89,-1.43 -4.51,-1.56 -1.61,-0.12 -3.24,-0.03 -4.83,-0.3 -1.5,-0.25 -2.92,-0.81 -4.37,-1.27 -1.52,-0.49 -3.07,-0.87 -4.64,-1.13 -3.71,-0.61 -7.52,-0.49 -11.19,0.27 -3.49,0.73 -6.87,2.05 -9.94,3.87 z" /><path
               id="mandible_upper_base"
               fill="url(#fill_mandible_upper_base)"
               d="m 83.94,63.95 c -1.66,1.12 -3.16,2.49 -4.43,4.04 -0.72,0.89 -1.38,1.86 -1.74,2.94 -0.29,0.86 -0.39,1.76 -0.57,2.65 -0.07,0.33 -0.15,0.66 -0.14,1 0,0.16 0.02,0.33 0.07,0.5 0.05,0.16 0.14,0.31 0.25,0.43 0.2,0.2 0.47,0.31 0.74,0.37 0.28,0.05 0.56,0.06 0.84,0.09 1.25,0.15 2.4,0.75 3.44,1.47 1.04,0.71 2,1.55 3.07,2.22 2.35,1.49 5.16,2.15 7.95,2.26 2.78,0.11 5.56,-0.31 8.3,-0.86 2.17,-0.43 4.33,-0.95 6.39,-1.76 3.16,-1.25 6.01,-3.16 8.72,-5.19 1.24,-0.92 2.46,-1.87 3.57,-2.94 0.37,-0.37 0.74,-0.74 1.14,-1.08 0.4,-0.33 0.85,-0.62 1.35,-0.78 0.76,-0.24 1.58,-0.17 2.37,-0.04 0.59,0.1 1.18,0.23 1.78,0.21 0.3,-0.02 0.6,-0.07 0.88,-0.18 0.28,-0.11 0.54,-0.28 0.73,-0.52 0.25,-0.3 0.38,-0.7 0.38,-1.09 0,-0.4 -0.12,-0.79 -0.32,-1.13 -0.4,-0.68 -1.09,-1.14 -1.81,-1.46 -0.99,-0.44 -2.06,-0.65 -3.11,-0.91 -3.23,-0.78 -6.37,-1.93 -9.34,-3.41 -1.48,-0.73 -2.92,-1.54 -4.37,-2.32 -1.5,-0.8 -3.02,-1.57 -4.64,-2.07 -3.64,-1.1 -7.6,-0.74 -11.19,0.51 -3.98,1.38 -7.58,3.84 -10.31,7.05 z"
               style="fill:url(#fill_mandible_upper_base)" /><path
               id="mandible_upper_glare"
               fill="#f6da4a"
               filter="url(#blur_mandible_upper_glare)"
               clip-path="url(#clip_mandible_upper)"
               d="m 109.45,64.75 c -0.2,-0.24 -0.48,-0.42 -0.78,-0.51 -0.3,-0.09 -0.62,-0.09 -0.93,-0.04 -0.62,0.11 -1.18,0.44 -1.7,0.8 -1.47,1.01 -2.77,2.26 -3.91,3.64 -1.5,1.83 -2.74,3.94 -3.16,6.27 -0.07,0.39 -0.11,0.8 -0.07,1.19 0.05,0.4 0.2,0.79 0.49,1.07 0.24,0.25 0.58,0.4 0.92,0.45 0.35,0.05 0.71,0 1.04,-0.11 0.66,-0.22 1.21,-0.69 1.74,-1.15 2.87,-2.58 5.47,-5.66 6.51,-9.38 0.1,-0.37 0.19,-0.75 0.19,-1.14 0,-0.39 -0.1,-0.78 -0.34,-1.09 z" /><path
               id="naris_left"
               opacity="0.8"
               fill="url(#fill_naris_left)"
               filter="url(#blur_naris_left)"
               d="m 92.72,59.06 c -0.77,-0.25 -2.03,1.1 -1.62,1.79 0.11,0.19 0.46,0.43 0.7,0.3 0.35,-0.19 0.64,-0.89 1.02,-1.16 0.25,-0.18 0.2,-0.84 -0.1,-0.93 z"
               style="fill:url(#fill_naris_left)" /><path
               id="naris_right"
               opacity="0.8"
               fill="url(#fill_naris_right)"
               filter="url(#blur_naris_right)"
               d="m 102.56,59.42 c 0.2,0.64 1.23,0.53 1.83,0.84 0.52,0.27 0.94,0.86 1.53,0.88 0.56,0.01 1.44,-0.2 1.51,-0.76 0.09,-0.73 -0.98,-1.2 -1.67,-1.47 -0.89,-0.34 -2.03,-0.52 -2.86,-0.06 -0.19,0.11 -0.4,0.36 -0.34,0.57 z"
               style="fill:url(#fill_naris_right)" /></g><path
             id="beak_corner"
             fill="url(#fill_beak_corner)"
             filter="url(#blur_beak_corner)"
             clip-path="url(#clip_beak)"
             d="m 129.27,69.15 a 2.42,3.1 16.94 0 1 -2.81,3.04 2.42,3.1 16.94 0 1 -2.12,-3.04 2.42,3.1 16.94 0 1 2.81,-3.05 2.42,3.1 16.94 0 1 2.12,3.05 z"
             style="fill:url(#fill_beak_corner)" /></g></g></g><g
       fill-rule="evenodd"
       id="g398"
       transform="matrix(0.74699266,0,0,0.74699266,340.29332,271.49979)"><rect
         x="1"
         y="1"
         width="194"
         height="194"
         rx="45"
         fill="url(#d)"
         stroke="#d9d9d9"
         id="rect390"
         style="fill:url(#d)" /><path
         d="M 32.882,137.54 H 28.3187 V 76.561 H 32.882 Z M 30.5354,61.613 c -1.9244,0 -3.5158,-1.5265 -3.5158,-3.4509 0,-1.9812 1.5833,-3.5158 3.5158,-3.5158 1.9812,0 3.5564,1.5265 3.5564,3.5158 0,1.9244 -1.5752,3.4509 -3.5564,3.4509 z"
         fill="url(#c)"
         id="path392"
         style="fill:url(#c)" /><path
         d="m 77.205,138.73 c -22.313,0 -36.409,-16.248 -36.409,-42.076 0,-25.699 14.161,-42.011 36.409,-42.011 22.248,0 36.401,16.313 36.401,42.011 0,25.829 -14.096,42.076 -36.401,42.076 z m 0,-79.89 c -19.422,0 -31.821,14.664 -31.821,37.813 0,23.166 12.456,37.887 31.821,37.887 19.422,0 31.821,-14.721 31.821,-37.887 0,-23.157 -12.399,-37.813 -31.821,-37.813 z"
         fill="url(#b)"
         id="path394"
         style="fill:url(#b)" /><path
         d="m 146.1,138.73 c -16.751,0 -28.76,-9.4595 -29.442,-22.987 h 4.474 c 0.68206,11.092 11.1,18.854 25.309,18.854 13.868,0 23.547,-7.8761 23.547,-18.513 0,-8.5582 -5.7731,-13.479 -19.471,-16.93 l -9.6787,-2.3791 c -15.111,-3.8569 -21.972,-9.971 -21.972,-20.21 0,-12.74 11.895,-21.915 26.787,-21.915 15.395,0 26.892,9.0616 27.404,21.063 h -4.474 c -0.62522,-9.7924 -10.19,-16.93 -23.044,-16.93 -12.293,0 -22.086,7.3646 -22.086,17.668 0,8.1603 6.0005,12.854 19.13,16.134 l 9.1184,2.3222 c 15.793,3.9056 22.873,9.971 22.873,20.835 0,13.527 -11.376,22.987 -28.476,22.987 z"
         fill="url(#a)"
         id="path396"
         style="fill:url(#a)" /></g><g
       id="g1120"
       transform="matrix(0.41929348,0,0,0.41929348,737.73181,297.65566)"><g
         fill="#a4c639"
         id="g1090"><use
           stroke-width="14.4"
           xlink:href="#b-7"
           stroke="#ffffff"
           id="use1075" /><use
           xlink:href="#a-3"
           transform="scale(-1,1)"
           id="use1077" /><g
           id="a-3"
           stroke="#ffffff"
           stroke-width="7.2"><rect
             rx="6.5"
             transform="rotate(29)"
             height="86"
             width="13"
             y="-86"
             x="14"
             id="rect1079" /><rect
             id="c-6"
             rx="24"
             height="133"
             width="48"
             y="41"
             x="-143" /><use
             y="97"
             x="85"
             xlink:href="#c-6"
             id="use1082" /></g><g
           id="b-7"><ellipse
             cy="41"
             rx="91"
             ry="84"
             id="ellipse1085"
             cx="0" /><rect
             rx="22"
             height="182"
             width="182"
             y="20"
             x="-91"
             id="rect1087" /></g></g><g
         stroke="#ffffff"
         stroke-width="7.2"
         fill="#ffffff"
         id="g1098"><path
           d="M -95,44.5 H 95"
           id="path1092" /><circle
           cx="-42"
           r="4"
           id="circle1094"
           cy="0" /><circle
           cx="42"
           r="4"
           id="circle1096"
           cy="0" /></g></g><path
       d="m 518.03409,300.83941 45.67335,-6.21998 0.0205,44.05564 -45.6516,0.25981 z m 45.65159,42.91148 0.0358,44.09403 -45.65159,-6.27629 -0.003,-38.11339 z m 5.53656,-49.94543 60.55907,-8.83852 v 53.14757 l -60.55907,0.48121 z m 60.57315,50.36009 -0.0141,52.90824 -60.55907,-8.54672 -0.0845,-44.46007 z"
       fill="#00adef"
       id="path1122"
       style="stroke-width:1.27983" /><g
       fill-rule="evenodd"
       clip-rule="evenodd"
       id="g1333"
       transform="matrix(1.807732,0,0,1.807732,-178.79195,482.93324)"><g
         id="g1360"
         transform="translate(190.80372,7.3921874)"><path
           fill="#b3b3b3"
           d="m 119.05354,319.30343 c -1.00232,2.31556 -2.18874,4.44702 -3.56335,6.40666 -1.87373,2.67149 -3.40789,4.52067 -4.59021,5.54753 -1.83282,1.68553 -3.79654,2.54876 -5.89937,2.59785 -1.50961,0 -3.33015,-0.42957 -5.449343,-1.30097 -2.126141,-0.86732 -4.080054,-1.29688 -5.866635,-1.29688 -1.873724,0 -3.883272,0.42956 -6.032733,1.29688 -2.152741,0.8714 -3.886958,1.32551 -5.212879,1.37052 -2.016505,0.0859 -4.02646,-0.80186 -6.032737,-2.6674 -1.280514,-1.11687 -2.882177,-3.03151 -4.800906,-5.7439 -2.058637,-2.89651 -3.751125,-6.25529 -5.07705,-10.08456 -1.420021,-4.1361 -2.131874,-8.14129 -2.131874,-12.01883 0,-4.44171 0.959771,-8.27261 2.882182,-11.4829 1.510844,-2.57862 3.520798,-4.61271 6.03641,-6.10596 2.51562,-1.49325 5.233746,-2.2542 8.160929,-2.30288 1.601663,0 3.702035,0.49543 6.312156,1.46911 2.602758,0.97696 4.273971,1.47239 5.006687,1.47239 0.547798,0 2.404336,-0.5793 5.551621,-1.73422 2.976272,-1.07105 5.488212,-1.51452 7.546032,-1.33983 5.57617,0.45002 9.76545,2.64817 12.55149,6.60835 -4.98704,3.02169 -7.45398,7.25393 -7.40488,12.68322 0.045,4.22897 1.57916,7.74813 4.59429,10.54236 1.36643,1.29687 2.89241,2.29919 4.59021,3.01105 -0.36819,1.06777 -0.75684,2.09054 -1.17004,3.07241 z m -12.78878,-50.32461 c 0,3.31465 -1.21097,6.40953 -3.62471,9.27411 -2.912869,3.40544 -6.436121,5.37325 -10.256795,5.06274 -0.04869,-0.39766 -0.07691,-0.81617 -0.07691,-1.25597 0,-3.18205 1.385248,-6.58748 3.845224,-9.37189 1.228145,-1.40979 2.790129,-2.58201 4.684301,-3.51711 1.89009,-0.92115 3.67791,-1.43057 5.35935,-1.51781 0.0491,0.44312 0.0695,0.88626 0.0695,1.32589 z"
           id="path1237"
           style="stroke-width:0.066278"
           transform="matrix(0.53705638,0,0,0.53705638,-0.07130425,-268.8298)" /><path
           fill="#ffffff"
           d="M 6.8395901,-125.83897 H 86.852404 v 80.012816 H 6.8395901 Z"
           id="path1317"
           style="stroke-width:0.415099" /><path
           d="m 49.235721,-87.911377 c -5.617949,0.218757 -11.672997,-0.838915 -16.779544,-3.392603 l 1.057672,-1.67783 c 4.960847,2.334516 10.651439,3.137317 15.721872,2.918145 0,0.182229 0.217927,-3.429132 0.546271,-5.398777 h -7.623293 c 0.692801,-7.952048 3.136903,-15.028658 6.784793,-21.047178 H 26.145427 v 34.726349 h 23.964908 c -0.5471,-2.079646 -0.874614,-6.201163 -0.874614,-6.128106 z"
           fill="#d0e9fb"
           id="path1319"
           style="stroke-width:0.415099" /><path
           d="m 51.533294,-90.20978 c 4.158461,-0.4014 7.805936,-1.495601 10.031281,-2.918145 l 1.313374,1.67783 c -3.064676,1.787831 -7.040494,2.954674 -11.344655,3.392603 0.109586,2.152288 0.43793,4.194575 0.98503,6.274221 H 68.932582 V -116.50962 H 51.460237 c -3.720532,5.69059 -5.836292,12.03746 -6.638678,18.74919 h 7.84288 c -0.657102,2.553274 -1.058087,5.070434 -1.131145,7.55065 z m -15.028657,-21.04718 h 2.225345 v 5.14349 h -2.225345 z"
           fill="#00acec"
           id="path1321"
           style="stroke-width:0.415099" /><path
           d="m 55.034654,-111.25696 h 2.22576 v 5.14349 h -2.22576 z"
           id="path1323"
           style="stroke-width:0.415099" /><path
           d="m 51.533294,-90.20978 c 4.158461,-0.4014 7.805936,-1.495601 10.031281,-2.918145 l 1.313374,1.67783 c -3.064676,1.787831 -7.040494,2.954674 -11.344655,3.392603 0.182229,3.866232 1.131145,7.69635 3.027317,11.380768 l -1.896172,1.020729 c -3.465246,-5.471004 -4.085404,-12.839426 -2.882032,-19.806447 h -7.623708 c 0.948502,-10.833668 5.106548,-20.026038 11.162011,-27.175278 l 1.640886,1.42254 c -5.908518,6.85785 -9.155007,14.84643 -10.140037,23.45475 h 7.84288 c -0.657102,2.553274 -1.058087,5.070434 -1.131145,7.55065 z"
           id="path1325"
           style="stroke-width:0.415099" /><path
           d="m 49.235721,-90.063665 v 2.152288 c -5.617949,0.218757 -11.672997,-0.838915 -16.779544,-3.392603 l 1.057672,-1.67783 c 4.960432,2.334516 10.651024,3.136902 15.721872,2.918145 z"
           fill="#00acec"
           id="path1327"
           style="stroke-width:0.415099" /><path
           d="m 13.378229,-70.111103 c -1.021144,0.07306 -1.531715,0.109586 -2.188402,0.109586 -0.401401,0 -0.802801,0 -1.2768443,-0.03653 H 9.1836539 c -0.364872,0 -0.5471004,0.146115 -0.5471004,0.510572 0,0.328343 0.1822284,0.510571 0.6201578,0.5471 l 0.7658577,0.07306 c 1.240316,0.109587 1.349487,0.218758 1.349487,1.276845 0,0.146115 -0.03611,0.510572 -0.03611,0.911972 l -0.693215,12.292324 c -0.146115,2.480216 -0.182229,2.698973 -0.401401,2.990787 -0.109586,0.182229 -0.4375143,0.364872 -0.9485011,0.43793 l -0.474043,0.07306 c -0.6932152,0.146115 -0.8028014,0.255286 -0.8028014,0.656687 0,0.291814 0.1822285,0.474458 0.4744581,0.474458 h 0.1822285 l 0.4379294,-0.03653 c 0.5471004,-0.03653 1.3860155,-0.07306 2.0061735,-0.07306 0.620158,0 1.896587,0.03653 2.261459,0.07306 l 0.510572,0.03653 0.182228,0.03653 c 0.291815,0.03653 0.5471,-0.218758 0.5471,-0.547101 0,-0.364872 -0.182228,-0.510571 -0.620157,-0.583629 l -0.58363,-0.07306 c -1.349486,-0.146115 -1.495601,-0.364872 -1.495601,-1.82436 0,-0.473628 0,-1.130315 0.03653,-1.567829 l 0.400985,-11.963982 5.216134,15.757571 c 0.146114,0.43793 0.218757,0.510572 0.4014,0.510572 0.218757,0 0.255286,-0.07306 0.43793,-0.5471 l 5.361833,-15.685344 0.07306,12.110927 v 1.167258 c 0,1.567829 -0.146115,1.859643 -1.130729,2.005758 l -0.474458,0.07306 c -0.510572,0.07306 -0.692801,0.218758 -0.692801,0.620158 0,0.328343 0.182229,0.474458 0.547101,0.510572 h 0.146115 l 0.4014,-0.07306 c 0.474458,-0.03653 1.860059,-0.109587 2.516745,-0.109587 0.583629,0 0.948501,0 1.422544,0.07306 0.474043,0.03653 0.838915,0.03653 0.948501,0.03653 h 0.43793 c 0.364457,0 0.5471,-0.146115 0.5471,-0.510572 0,-0.328343 -0.182228,-0.474458 -0.765857,-0.547101 l -0.510572,-0.07306 c -0.765858,-0.07306 -1.021143,-0.328343 -1.13073,-0.838915 -0.07306,-0.510157 -0.07306,-1.130314 -0.109586,-3.319131 l -0.07306,-10.578382 -0.03653,-1.495186 c 0,-1.459488 0.07306,-1.568659 1.239901,-1.714774 l 0.693215,-0.07306 c 0.510572,-0.07306 0.656687,-0.218757 0.656687,-0.583629 0,-0.328343 -0.109587,-0.437929 -0.547101,-0.474458 h -0.109586 l -0.437929,0.03653 c -0.547101,0 -0.98503,0.03653 -1.495602,0.03653 -0.5471,0 -1.021558,-0.03653 -1.97006,-0.07306 l -5.361833,15.575758 z m 39.869839,4.74209 v -2.078816 h -0.401401 l -0.510571,1.750473 h -0.03653 l -0.547101,-1.750473 h -0.4014 v 2.078816 h 0.255286 v -1.202957 -0.510572 l 0.583629,1.713944 h 0.218757 l 0.583629,-1.750472 v 1.750057 z m -19.661162,13.788342 c 0.583629,-0.255286 1.203787,-0.728914 1.641716,-1.239486 0.291815,-0.437929 0.400986,-0.729744 0.400986,-1.276844 l 0.07306,-3.282603 c -1.021143,0.510157 -1.605187,0.8385 -2.115759,1.202957 -0.182228,0.109586 -0.328343,0.255286 -0.474043,0.364872 -1.094616,0.911973 -1.641716,1.933531 -1.641716,2.882032 0,0.947671 0.510571,1.567829 1.240315,1.567829 0.255286,0 0.547101,-0.07306 0.875444,-0.218757 z m 0,-5.835876 c 0.620158,-0.364872 1.349487,-0.729744 2.115759,-1.058088 v -2.626746 c 0,-1.787001 -0.4014,-2.552858 -1.386015,-2.552858 -0.255286,0 -0.510572,0.03653 -0.729329,0.109586 -0.98503,0.364872 -1.714358,1.38643 -1.970059,2.881202 l -0.109587,0.5471 c -0.146114,0.656687 -0.291814,0.802801 -0.802386,0.802801 h -0.510572 c -0.4014,0 -0.620157,-0.218757 -0.620157,-0.583629 0,-0.620157 0.620157,-2.115344 1.313373,-2.954259 0.729329,-0.875444 1.67783,-1.496017 2.699388,-1.787831 0.400986,-0.109586 0.838915,-0.182229 1.276845,-0.182229 1.0942,0 1.641301,0.146115 2.115759,0.547101 0.6928,0.583629 0.875444,1.131145 0.875444,2.91773 v 0.218758 l -0.07306,6.639092 c 0,2.152703 0,2.152703 0.07306,2.443688 0.03653,0.291814 0.255285,0.583629 0.5471,0.620158 0.5471,0.07306 0.766273,-0.146115 0.98503,-0.547101 0.182228,-0.473628 0.766273,-0.473628 0.693215,0.03653 -0.03653,0.5471 -0.182228,0.98503 -0.656686,1.53213 -0.58363,0.656687 -1.386016,0.838915 -2.188402,0.838915 -1.094616,0 -1.605188,-0.693215 -1.605188,-2.152703 -0.5471,0.693215 -1.276844,1.276844 -2.042702,1.678245 -0.6928,0.328343 -1.459073,0.5471 -2.152288,0.5471 -1.422544,0 -2.371045,-1.021558 -2.371045,-2.590217 -8.3e-4,-1.8227 1.603942,-3.720117 4.522503,-5.324475 z m 15.866742,-9.775996 h 0.693216 v 1.82353 h 0.255286 v -1.82353 h 0.693215 v -0.255286 h -1.641717 z m 0.58363,15.027828 c -0.656687,0.911972 -1.604358,1.678245 -3.136903,1.641716 -2.990788,-0.109586 -4.194575,-3.35566 -4.194575,-6.966606 0,-3.538718 1.568659,-6.128521 3.684003,-6.237692 0.729329,-0.03653 1.276844,0.218757 1.750887,0.693216 0.474459,0.437929 0.838915,1.021558 1.021559,1.495186 0.364042,1.058087 1.3856,1.82436 1.239485,-1.349072 -0.07306,-1.167258 -1.495186,-2.006588 -3.100374,-1.970059 -4.048875,0.109586 -6.857849,3.282602 -6.857849,8.24345 0,4.34152 2.152288,7.222722 5.361833,7.222722 1.2399,0 2.735917,-0.07306 3.756645,-0.875444 0.802802,-0.583629 1.021559,-0.875444 1.167259,-1.496017 0.183888,-0.801971 -0.472798,-0.692385 -0.69197,-0.4014 z"
           id="path1329"
           style="stroke-width:0.415099" /><path
           d="m 64.810649,-70.877376 c -5.18002,0.109586 -8.900136,4.595975 -8.900136,10.870611 0,6.493393 3.610945,10.979783 8.754437,10.979783 h 0.146114 c 2.626747,-0.03653 4.669033,-1.094616 6.420336,-3.35566 1.677415,-2.116175 2.407159,-4.451106 2.407159,-7.660651 0,-2.95426 -0.620158,-5.252663 -1.859644,-7.14925 -1.568659,-2.37146 -3.976648,-3.684833 -6.821736,-3.684833 z m 0,20.755778 c -1.896172,0 -3.173431,-0.729744 -4.413747,-2.553689 -1.313373,-1.932701 -1.896172,-4.194575 -1.896172,-7.294949 0,-5.72712 2.552859,-9.702938 6.309919,-9.812524 h 0.146115 c 1.714774,0 3.100374,0.766272 4.231104,2.334931 1.313373,1.750473 1.933531,4.194575 1.933531,7.404536 0,2.955089 -0.510572,5.216133 -1.678245,7.040493 -1.240316,2.005758 -2.625916,2.881202 -4.632505,2.881202 z m 19.770748,-19.515047 c -1.131144,-0.729744 -2.187986,-1.021559 -3.647474,-1.021559 -3.283433,0 -5.72712,2.444518 -5.72712,5.836706 0,2.334932 1.058087,3.757061 3.720531,5.106963 l 1.714774,0.802801 c 2.078816,1.058087 2.954259,2.224516 2.954259,4.121933 0,2.590217 -1.568658,4.413747 -3.720531,4.413747 -1.131145,0 -2.116175,-0.437929 -2.735503,-1.276844 -0.5471,-0.692385 -0.985029,-1.787001 -1.167258,-2.698974 l -0.07306,-0.693215 c -0.109586,-0.620158 -0.218757,-0.802801 -0.583629,-0.802801 -0.328344,0 -0.510572,0.291814 -0.510572,0.875443 l 0.109586,4.522918 c 1.422959,0.838915 2.845088,1.240316 4.559447,1.240316 2.152703,0 3.757061,-0.729744 4.851676,-2.225345 0.875444,-1.167259 1.349902,-2.625916 1.349902,-4.194575 0,-2.698974 -1.058087,-4.34069 -3.538718,-5.617534 l -1.130315,-0.583629 c -2.043117,-1.020729 -2.481046,-1.312543 -2.991618,-1.896172 -0.510156,-0.58363 -0.765442,-1.349902 -0.765442,-2.298403 0,-2.042287 1.312543,-3.501775 3.063845,-3.501775 1.713944,0 3.027317,1.276844 3.319131,3.173846 l 0.07306,0.510157 c 0.03653,0.401401 0.182228,0.583629 0.474458,0.583629 0.364872,0 0.437929,-0.03653 0.510571,-0.656686 v -0.07306 z"
           fill="#00acec"
           id="path1331"
           style="stroke-width:0.415099" /></g></g></g></svg>
